<?xml version="1.0" encoding="utf-8"?>
<!-- Generator: Adobe Illustrator 23.0.6, SVG Export Plug-In . SVG Version: 6.00 Build 0)  -->
<svg version="1.1" id="Layer_1" xmlns="http://www.w3.org/2000/svg" xmlns:xlink="http://www.w3.org/1999/xlink" x="0px" y="0px"
	 viewBox="0 0 300 300" style="enable-background:new 0 0 300 300;" xml:space="preserve">
<style type="text/css">
	.st0{display:none;}
	.st1{display:inline;fill:#CCCCCC;}
	.st2{display:inline;fill:#ED5DA4;}
	.st3{display:inline;fill:none;stroke:#EE5DA5;stroke-width:3;stroke-miterlimit:10;}
	.st4{display:inline;}
	.st5{enable-background:new    ;}
	.st6{fill:#006B34;}
	.st7{fill:#006330;}
	.st8{fill:#008842;}
	.st9{fill:#3B4D54;}
	.st10{fill:#37474D;}
	.st11{fill:#4B626B;}
	.st12{fill:#A3770C;}
	.st13{fill:#966E0B;}
	.st14{fill:#D09810;}
	.st15{clip-path:url(#SVGID_2_);enable-background:new    ;}
	.st16{fill:#00562A;}
	.st17{fill:#005A2C;}
	.st18{fill:#005D2D;}
	.st19{fill:#00602F;}
	.st20{fill:#006130;}
	.st21{fill:#006632;}
	.st22{fill:#008B44;}
	.st23{fill:#006933;}
	.st24{clip-path:url(#SVGID_4_);enable-background:new    ;}
	.st25{fill:#006431;}
	.st26{fill:#006732;}
	.st27{fill:#006A34;}
	.st28{fill:#006E35;}
	.st29{fill:#007137;}
	.st30{clip-path:url(#SVGID_6_);enable-background:new    ;}
	.st31{fill:#006230;}
	.st32{clip-path:url(#SVGID_8_);enable-background:new    ;}
	.st33{clip-path:url(#SVGID_10_);enable-background:new    ;}
	.st34{clip-path:url(#SVGID_12_);enable-background:new    ;}
	.st35{clip-path:url(#SVGID_14_);enable-background:new    ;}
	.st36{fill:#946D0B;}
	.st37{fill:#A1760C;}
	.st38{clip-path:url(#SVGID_16_);enable-background:new    ;}
	.st39{fill:#936B0B;}
	.st40{fill:#986F0B;}
	.st41{fill:#9D730C;}
	.st42{fill:#A2760C;}
	.st43{fill:#A77A0D;}
	.st44{fill:#AC7E0D;}
	.st45{fill:#D49B10;}
	.st46{clip-path:url(#SVGID_18_);enable-background:new    ;}
	.st47{fill:#84600A;}
	.st48{fill:#89640A;}
	.st49{fill:#8E680B;}
	.st50{fill:#9C720C;}
	.st51{fill:#36464C;}
	.st52{fill:#3A4C53;}
	.st53{fill:#4D646D;}
	.st54{fill:#394950;}
	.st55{clip-path:url(#SVGID_20_);enable-background:new    ;}
	.st56{clip-path:url(#SVGID_22_);enable-background:new    ;}
	.st57{clip-path:url(#SVGID_24_);enable-background:new    ;}
	.st58{fill:#35454B;}
	.st59{fill:#37474E;}
	.st60{fill:#394A51;}
	.st61{fill:#3B4C53;}
	.st62{fill:#3D4F56;}
	.st63{fill:#3F5158;}
	.st64{clip-path:url(#SVGID_26_);enable-background:new    ;}
	.st65{clip-path:url(#SVGID_28_);enable-background:new    ;}
	.st66{clip-path:url(#SVGID_30_);enable-background:new    ;}
</style>
<g>
	<g id="hor" class="st0">
		<path class="st1" d="M143.8,129.2c0,6.5-10.1,6.5-10.1,0S143.8,122.6,143.8,129.2z"/>
		<path class="st1" d="M143.8,174.6c0,6.5-10.1,6.5-10.1,0S143.8,168.1,143.8,174.6z"/>
		<path class="st2" d="M166.3,129.2c0,6.5-10.1,6.5-10.1,0S166.3,122.6,166.3,129.2z"/>
		<path class="st1" d="M166.3,151.9c0,6.5-10.1,6.5-10.1,0S166.3,145.4,166.3,151.9z"/>
		<path class="st2" d="M166.3,174.6c0,6.5-10.1,6.5-10.1,0S166.3,168.1,166.3,174.6z"/>
		<line class="st3" x1="158.7" y1="132.1" x2="140.2" y2="150.8"/>
		<line class="st3" x1="158.8" y1="172.5" x2="140.1" y2="154"/>
		<path class="st2" d="M143.8,151.9c0,6.5-10.1,6.5-10.1,0S143.8,145.4,143.8,151.9z"/>
	</g>
</g>
<g class="st0">
	<g class="st4">
		<g class="st5">
			<g>
				<polygon class="st6" points="77.5,225.3 83.6,220.9 84.3,288.4 78.3,292.7 				"/>
			</g>
			<g>
				<polygon class="st7" points="10.3,225.3 16.4,220.9 83.6,220.9 77.5,225.3 				"/>
			</g>
			<g>
				<polygon class="st8" points="77.5,225.3 78.3,292.7 11.1,292.7 10.3,225.3 				"/>
			</g>
		</g>
		<g class="st5">
			<g>
				<polygon class="st6" points="76.8,153.9 82.9,149.6 83.6,217 77.5,221.4 				"/>
			</g>
			<g>
				<polygon class="st7" points="9.6,153.9 15.6,149.6 82.9,149.6 76.8,153.9 				"/>
			</g>
			<g>
				<polygon class="st8" points="76.8,153.9 77.5,221.4 10.3,221.4 9.6,153.9 				"/>
			</g>
		</g>
		<g class="st5">
			<g>
				<polygon class="st6" points="76,82.6 82.1,78.2 82.8,145.7 76.7,150.1 				"/>
			</g>
			<g>
				<polygon class="st7" points="8.8,82.6 14.9,78.2 82.1,78.2 76,82.6 				"/>
			</g>
			<g>
				<polygon class="st8" points="76,82.6 76.7,150.1 9.5,150.1 8.8,82.6 				"/>
			</g>
		</g>
		<g class="st5">
			<g>
				<polygon class="st6" points="75.3,11.3 81.3,6.9 82.1,74.4 76,78.7 				"/>
			</g>
			<g>
				<polygon class="st7" points="8.1,11.3 14.1,6.9 81.3,6.9 75.3,11.3 				"/>
			</g>
			<g>
				<polygon class="st8" points="75.3,11.3 76,78.7 8.8,78.7 8.1,11.3 				"/>
			</g>
		</g>
		<g class="st5">
			<g>
				<polygon class="st6" points="147.8,225.5 153.8,221.2 154.6,288.6 148.5,293 				"/>
			</g>
			<g>
				<polygon class="st7" points="80.5,225.5 86.6,221.2 153.8,221.2 147.8,225.5 				"/>
			</g>
			<g>
				<polygon class="st8" points="147.8,225.5 148.5,293 81.3,293 80.5,225.5 				"/>
			</g>
		</g>
		<g class="st5">
			<g>
				<polygon class="st6" points="147,154.2 153.1,149.8 153.8,217.3 147.7,221.6 				"/>
			</g>
			<g>
				<polygon class="st7" points="79.8,154.2 85.9,149.8 153.1,149.8 147,154.2 				"/>
			</g>
			<g>
				<polygon class="st8" points="147,154.2 147.7,221.6 80.5,221.6 79.8,154.2 				"/>
			</g>
		</g>
		<g class="st5">
			<g>
				<polygon class="st6" points="146.2,82.8 152.3,78.5 153,145.9 147,150.3 				"/>
			</g>
			<g>
				<polygon class="st7" points="79,82.8 85.1,78.5 152.3,78.5 146.2,82.8 				"/>
			</g>
			<g>
				<polygon class="st8" points="146.2,82.8 147,150.3 79.7,150.3 79,82.8 				"/>
			</g>
		</g>
		<g class="st5">
			<g>
				<polygon class="st6" points="145.5,11.5 151.6,7.1 152.3,74.6 146.2,79 				"/>
			</g>
			<g>
				<polygon class="st7" points="78.3,11.5 84.3,7.1 151.6,7.1 145.5,11.5 				"/>
			</g>
			<g>
				<polygon class="st8" points="145.5,11.5 146.2,79 79,79 78.3,11.5 				"/>
			</g>
		</g>
		<g class="st5">
			<g>
				<polygon class="st6" points="218,225.4 224,221 224.8,288.5 218.7,292.9 				"/>
			</g>
			<g>
				<polygon class="st7" points="150.7,225.4 156.8,221 224,221 218,225.4 				"/>
			</g>
			<g>
				<polygon class="st8" points="218,225.4 218.7,292.9 151.5,292.9 150.7,225.4 				"/>
			</g>
		</g>
		<g class="st5">
			<g>
				<polygon class="st6" points="217.2,154 223.3,149.7 224,217.2 217.9,221.5 				"/>
			</g>
			<g>
				<polygon class="st7" points="150,154 156.1,149.7 223.3,149.7 217.2,154 				"/>
			</g>
			<g>
				<polygon class="st8" points="217.2,154 217.9,221.5 150.7,221.5 150,154 				"/>
			</g>
		</g>
		<g class="st5">
			<g>
				<polygon class="st9" points="216.4,82.7 222.5,78.4 223.2,145.8 217.2,150.2 				"/>
			</g>
			<g>
				<polygon class="st10" points="149.2,82.7 155.3,78.4 222.5,78.4 216.4,82.7 				"/>
			</g>
			<g>
				<polygon class="st11" points="216.4,82.7 217.2,150.2 149.9,150.2 149.2,82.7 				"/>
			</g>
		</g>
		<g class="st5">
			<g>
				<polygon class="st12" points="215.7,11.4 221.8,7 222.5,74.5 216.4,78.8 				"/>
			</g>
			<g>
				<polygon class="st13" points="148.5,11.4 154.5,7 221.8,7 215.7,11.4 				"/>
			</g>
			<g>
				<polygon class="st14" points="215.7,11.4 216.4,78.8 149.2,78.8 148.5,11.4 				"/>
			</g>
		</g>
		<g class="st5">
			<g>
				<polygon class="st6" points="288.2,225.6 294.2,221.3 295,288.7 288.9,293.1 				"/>
			</g>
			<g>
				<polygon class="st7" points="221,225.6 227,221.3 294.2,221.3 288.2,225.6 				"/>
			</g>
			<g>
				<polygon class="st8" points="288.2,225.6 288.9,293.1 221.7,293.1 221,225.6 				"/>
			</g>
		</g>
		<g class="st5">
			<g>
				<polygon class="st12" points="287.4,154.3 293.5,149.9 294.2,217.4 288.1,221.8 				"/>
			</g>
			<g>
				<polygon class="st13" points="220.2,154.3 226.3,149.9 293.5,149.9 287.4,154.3 				"/>
			</g>
			<g>
				<polygon class="st14" points="287.4,154.3 288.1,221.8 220.9,221.8 220.2,154.3 				"/>
			</g>
		</g>
		<g class="st5">
			<g>
				<polygon class="st12" points="286.6,83 292.7,78.6 293.4,146.1 287.4,150.4 				"/>
			</g>
			<g>
				<polygon class="st13" points="219.4,83 225.5,78.6 292.7,78.6 286.6,83 				"/>
			</g>
			<g>
				<polygon class="st14" points="286.6,83 287.4,150.4 220.1,150.4 219.4,83 				"/>
			</g>
		</g>
		<g class="st5">
			<g>
				<polygon class="st9" points="285.9,11.6 292,7.3 292.7,74.7 286.6,79.1 				"/>
			</g>
			<g>
				<polygon class="st10" points="218.7,11.6 224.7,7.3 292,7.3 285.9,11.6 				"/>
			</g>
			<g>
				<polygon class="st11" points="285.9,11.6 286.6,79.1 219.4,79.1 218.7,11.6 				"/>
			</g>
		</g>
	</g>
</g>
<g id="Layer_3">
</g>
<g id="Layer_4">
	<g>
		<g class="st5">
			<g class="st5">
				<g>
					<defs>
						<path id="SVGID_1_" d="M52.6,30.7l3.5-3.5c1.6-1.6,3.9-2.7,6.4-2.7L59,28C56.5,28,54.2,29,52.6,30.7z"/>
					</defs>
					<clipPath id="SVGID_2_">
						<use xlink:href="#SVGID_1_"  style="overflow:visible;"/>
					</clipPath>
					<g class="st15">
						<path class="st16" d="M52.6,30.7l3.5-3.5c0.9-0.9,1.9-1.6,3.1-2l-3.5,3.5C54.5,29.1,53.5,29.8,52.6,30.7"/>
						<path class="st17" d="M55.7,28.6l3.5-3.5c0.4-0.2,0.9-0.3,1.3-0.4L57,28.2C56.6,28.3,56.1,28.4,55.7,28.6"/>
						<path class="st18" d="M57,28.2l3.5-3.5c0.4-0.1,0.7-0.1,1.1-0.2L58.1,28C57.8,28.1,57.4,28.1,57,28.2"/>
						<path class="st19" d="M58.2,28l3.5-3.5c0.3,0,0.6,0,0.9,0L59.1,28C58.7,28,58.4,28,58.2,28"/>
					</g>
				</g>
			</g>
			<g>
				<polygon class="st20" points="59,28 62.5,24.5 78.3,24.5 74.9,28 				"/>
			</g>
			<g>
				<polygon class="st21" points="74.9,28 78.3,24.5 78.6,68.7 75.1,72.2 				"/>
			</g>
			<g>
				<path class="st22" d="M75.1,72.2H53.3L49.9,38c-0.5-5.3,3.7-10,9-10h15.8L75.1,72.2z"/>
			</g>
		</g>
		<g class="st5">
			<g>
				<polygon class="st20" points="53.7,76.1 57.2,72.6 78.6,72.6 75.1,76.1 				"/>
			</g>
			<g>
				<polygon class="st21" points="75.1,76.1 78.6,72.6 78.9,140.1 75.4,143.6 				"/>
			</g>
			<g>
				<polygon class="st22" points="60.3,143.6 53.7,76.1 75.1,76.1 75.4,143.6 				"/>
			</g>
		</g>
		<g class="st5">
			<g>
				<polygon class="st20" points="60.7,147.5 64.2,144 78.9,144 75.4,147.5 				"/>
			</g>
			<g>
				<polygon class="st21" points="75.4,147.5 78.9,144 79.2,211.6 75.8,215.1 				"/>
			</g>
			<g>
				<polygon class="st22" points="65,191.6 60.7,147.5 75.4,147.5 75.8,215.1 67.3,215.1 				"/>
			</g>
		</g>
		<g class="st5">
			<g>
				<polygon class="st20" points="67.7,218.9 71.2,215.4 79.3,215.4 75.8,218.9 				"/>
			</g>
			<g>
				<polygon class="st21" points="75.8,218.9 79.3,215.4 79.5,272.5 76.1,276 				"/>
			</g>
			<g>
				<path class="st22" d="M72.9,271c0-0.1-0.1-0.2-0.1-0.3c-0.1-0.3-0.1-0.6-0.1-0.9l-5-50.9h8.1l0.3,57.1c-0.1,0-0.1-0.1-0.2-0.1
					c-0.1-0.1-0.3-0.2-0.4-0.3c-0.1-0.1-0.2-0.2-0.3-0.2c-0.1-0.1-0.2-0.2-0.3-0.4c-0.1-0.1-0.2-0.2-0.2-0.3
					c-0.1-0.1-0.2-0.3-0.3-0.4c-0.1-0.1-0.1-0.2-0.2-0.3c-0.1-0.1-0.2-0.3-0.3-0.4c-0.1-0.1-0.1-0.2-0.2-0.3
					c-0.1-0.2-0.2-0.3-0.2-0.5c-0.1-0.1-0.1-0.2-0.1-0.3c-0.1-0.2-0.1-0.3-0.2-0.5c0-0.1-0.1-0.2-0.1-0.3
					C73,271.4,73,271.2,72.9,271z"/>
			</g>
		</g>
		<g class="st5">
			<g>
				<polygon class="st20" points="77.9,28 81.3,24.5 86.2,24.5 82.7,28 				"/>
			</g>
			<g>
				<polygon class="st23" points="91.8,36.4 95.3,32.9 98.2,68.9 94.7,72.4 				"/>
			</g>
			<g class="st5">
				<g>
					<defs>
						<path id="SVGID_3_" d="M82.7,28l3.5-3.5c4.8,0,8.7,3.7,9.1,8.4l-3.5,3.5C91.4,31.7,87.5,28,82.7,28z"/>
					</defs>
					<clipPath id="SVGID_4_">
						<use xlink:href="#SVGID_3_"  style="overflow:visible;"/>
					</clipPath>
					<g class="st24">
						<path class="st19" d="M82.7,28l3.5-3.5c0.1,0,0.1,0,0.2,0L82.8,28C82.8,28,82.8,28,82.7,28"/>
						<path class="st25" d="M82.9,28l3.5-3.5c0.3,0,0.7,0,1,0.1l-3.5,3.5C83.6,28,83.3,28,82.9,28"/>
						<path class="st26" d="M83.9,28.1l3.5-3.5c0.4,0,0.7,0.1,1,0.2l-3.5,3.5C84.6,28.2,84.3,28.1,83.9,28.1"/>
						<path class="st27" d="M85,28.3l3.5-3.5c0.4,0.1,0.7,0.2,1.1,0.4l-3.5,3.5C85.7,28.5,85.3,28.4,85,28.3"/>
						<path class="st28" d="M86.1,28.6l3.5-3.5c0.4,0.2,0.9,0.4,1.3,0.6l-3.5,3.5C86.9,29,86.5,28.8,86.1,28.6"/>
						<path class="st29" d="M87.4,29.3l3.5-3.5c1.7,1,3.1,2.5,3.8,4.4l-3.5,3.5C90.4,31.8,89.1,30.3,87.4,29.3"/>
						<path class="st28" d="M91.2,33.7l3.5-3.5c0.2,0.4,0.3,0.9,0.4,1.4L91.6,35C91.5,34.6,91.3,34.1,91.2,33.7"/>
						<path class="st27" d="M91.6,35l3.5-3.5c0.1,0.4,0.2,0.8,0.2,1.1l-3.5,3.5C91.8,35.8,91.7,35.4,91.6,35"/>
						<path class="st26" d="M91.8,36.2l3.5-3.5c0,0.1,0,0.2,0,0.3l-3.5,3.5C91.8,36.3,91.8,36.2,91.8,36.2"/>
					</g>
				</g>
			</g>
			<g>
				<path class="st22" d="M94.7,72.4H78.1L77.9,28h4.8c4.8,0,8.7,3.7,9.1,8.4L94.7,72.4z"/>
			</g>
		</g>
		<g class="st5">
			<g class="st5">
				<g>
					<defs>
						<path id="SVGID_5_" d="M130.9,30.7l3.5-3.5c1.6-1.7,3.9-2.7,6.4-2.7l-3.5,3.5C134.8,28,132.6,29,130.9,30.7z"/>
					</defs>
					<clipPath id="SVGID_6_">
						<use xlink:href="#SVGID_5_"  style="overflow:visible;"/>
					</clipPath>
					<g class="st30">
						<path class="st16" d="M130.9,30.7l3.5-3.5c0.9-0.9,2-1.6,3.1-2l-3.5,3.5C132.9,29.1,131.8,29.8,130.9,30.7"/>
						<path class="st17" d="M134,28.6l3.5-3.5c0.4-0.2,0.9-0.3,1.3-0.4l-3.5,3.5C134.9,28.3,134.5,28.4,134,28.6"/>
						<path class="st18" d="M135.4,28.2l3.5-3.5c0.4-0.1,0.7-0.1,1.1-0.2l-3.5,3.5C136.1,28.1,135.7,28.1,135.4,28.2"/>
						<path class="st19" d="M136.4,28l3.5-3.5c0.3,0,0.6,0,0.8,0l-3.5,3.5C136.9,28,136.8,28,136.4,28"/>
					</g>
				</g>
			</g>
			<g>
				<polygon class="st20" points="137.3,28 140.8,24.5 148.9,24.5 145.4,28 				"/>
			</g>
			<g>
				<polygon class="st21" points="145.4,28 148.9,24.5 149.1,68.9 145.6,72.4 				"/>
			</g>
			<g>
				<path class="st22" d="M145.6,72.4h-21.2l3.8-36.3c0.5-4.6,4.4-8.1,9-8.1h8.1L145.6,72.4z"/>
			</g>
		</g>
		<g class="st5">
			<g>
				<polygon class="st23" points="95,76.3 98.5,72.8 104,140.4 100.5,143.9 				"/>
			</g>
			<g>
				<polygon class="st20" points="78.1,76.3 81.6,72.8 98.5,72.8 95,76.3 				"/>
			</g>
			<g>
				<polygon class="st22" points="95,76.3 100.5,143.9 78.4,143.9 78.1,76.3 				"/>
			</g>
		</g>
		<g class="st5">
			<g>
				<polygon class="st31" points="144.2,119.9 147.6,116.4 145.1,140.4 141.6,143.9 				"/>
			</g>
			<g>
				<polygon class="st31" points="144.9,111.9 148.4,108.4 147.6,116.4 144.2,119.9 				"/>
			</g>
			<g class="st5">
				<g>
					<defs>
						<path id="SVGID_7_" d="M145.8,103.5l3.5-3.5c0,0.5-0.1,1-0.1,1.5c0,0.2,0,0.3,0,0.4c0,0.5-0.1,1-0.1,1.4c0,0.1,0,0.3,0,0.4
							c0,0.4-0.1,0.8-0.1,1.2c0,0.1,0,0.3,0,0.4c0,0.5-0.1,0.9-0.1,1.3c0,0.1,0,0.2,0,0.3c0,0.5-0.1,0.9-0.1,1.3l-3.5,3.5
							c0-0.4,0.1-0.9,0.1-1.3c0-0.1,0-0.2,0-0.3c0-0.4,0.1-0.9,0.1-1.3c0-0.1,0-0.3,0-0.4c0-0.4,0.1-0.8,0.1-1.2c0-0.1,0-0.3,0-0.4
							c0-0.5,0.1-0.9,0.1-1.4c0-0.1,0-0.3,0-0.4C145.7,104.5,145.8,104,145.8,103.5z"/>
					</defs>
					<clipPath id="SVGID_8_">
						<use xlink:href="#SVGID_7_"  style="overflow:visible;"/>
					</clipPath>
					<g class="st32">
						<path class="st25" d="M145.8,103.5l3.5-3.5c0,0.5-0.1,1-0.1,1.5c0,0.2,0,0.3,0,0.4c0,0.5-0.1,1-0.1,1.4c0,0.1,0,0.3,0,0.4
							c0,0.4-0.1,0.8-0.1,1.2c0,0.1,0,0.3,0,0.4c0,0.5-0.1,0.9-0.1,1.3c0,0.1,0,0.2,0,0.3c0,0.5-0.1,0.9-0.1,1.3l-3.5,3.5
							c0-0.4,0.1-0.9,0.1-1.3c0-0.1,0-0.2,0-0.3c0-0.4,0.1-0.9,0.1-1.3c0-0.1,0-0.3,0-0.4c0-0.4,0.1-0.8,0.1-1.2c0-0.1,0-0.3,0-0.4
							c0-0.5,0.1-0.9,0.1-1.4c0-0.1,0-0.3,0-0.4C145.7,104.5,145.8,104,145.8,103.5"/>
					</g>
				</g>
			</g>
			<g>
				<polygon class="st21" points="145.7,76.3 149.1,72.8 149.3,100 145.8,103.5 				"/>
			</g>
			<g>
				<polygon class="st20" points="124.1,76.3 127.5,72.8 149.1,72.8 145.7,76.3 				"/>
			</g>
			<g>
				<path class="st22" d="M116.9,143.9l7.1-67.6h21.6l0.1,27.2c0,0.5-0.1,1-0.1,1.5c0,0.2,0,0.3,0,0.4c0,0.5-0.1,1-0.1,1.4
					c0,0.1,0,0.3,0,0.4c0,0.4-0.1,0.8-0.1,1.2c0,0.1,0,0.3,0,0.4c0,0.5-0.1,0.9-0.1,1.3c0,0.1,0,0.2,0,0.3c0,0.5-0.1,0.9-0.1,1.3
					l-0.8,7.9l-2.6,24h-24.9V143.9z"/>
			</g>
		</g>
		<g class="st5">
			<g class="st5">
				<g>
					<defs>
						<path id="SVGID_9_" d="M104.6,195.2l3.5-3.5c0.1,1.2,0.2,2.6,0.3,4.2c0,0.5,0.1,1.1,0.1,1.6c0,0.3,0,0.6,0,0.9
							c0.1,1.2,0.1,2.4,0.2,3.8c0,1,0.1,2,0.1,3.1c0.1,1.3,0.1,2.6,0.2,4c0,0.4,0,0.8,0.1,1.2c0,0.5,0,0.9,0.1,1.4l-3.5,3.5
							c0-0.5,0-0.9-0.1-1.4c0-0.4,0-0.8-0.1-1.2c-0.1-1.3-0.1-2.7-0.2-4c0-1.1-0.1-2.1-0.1-3.1c-0.1-1.3-0.1-2.6-0.2-3.8
							c0-0.3,0-0.6,0-0.9c0-0.6-0.1-1.1-0.1-1.6C104.8,197.8,104.7,196.4,104.6,195.2z"/>
					</defs>
					<clipPath id="SVGID_10_">
						<use xlink:href="#SVGID_9_"  style="overflow:visible;"/>
					</clipPath>
					<g class="st33">
						<path class="st26" d="M104.6,195.2l3.5-3.5c0.1,1.2,0.2,2.6,0.3,4.2c0,0.5,0.1,1.1,0.1,1.6c0,0.3,0,0.6,0,0.9
							c0.1,1.2,0.1,2.4,0.2,3.8c0,1,0.1,2,0.1,3.1c0.1,1.3,0.1,2.6,0.2,4c0,0.4,0,0.8,0.1,1.2c0,0.5,0,0.9,0.1,1.4l-3.5,3.5
							c0-0.5,0-0.9-0.1-1.4c0-0.4,0-0.8-0.1-1.2c-0.1-1.3-0.1-2.7-0.2-4c0-1.1-0.1-2.1-0.1-3.1c-0.1-1.3-0.1-2.6-0.2-3.8
							c0-0.3,0-0.6,0-0.9c0-0.6-0.1-1.1-0.1-1.6C104.8,197.8,104.7,196.4,104.6,195.2"/>
					</g>
				</g>
			</g>
			<g>
				<polygon class="st23" points="100.8,147.7 104.3,144.3 108.1,191.7 104.6,195.2 				"/>
			</g>
			<g>
				<polygon class="st20" points="78.4,147.7 81.9,144.3 104.3,144.3 100.8,147.7 				"/>
			</g>
			<g>
				<path class="st22" d="M78.4,147.7h22.4l3.8,47.4c0.1,1.2,0.2,2.6,0.3,4.2c0,0.5,0.1,1.1,0.1,1.6c0,0.3,0,0.6,0,0.9
					c0.1,1.2,0.1,2.4,0.2,3.8c0,1,0.1,2,0.1,3.1c0.1,1.3,0.1,2.6,0.2,4c0,0.4,0,0.8,0.1,1.2c0,0.5,0,0.9,0.1,1.4H78.8L78.4,147.7z"
					/>
			</g>
		</g>
		<g class="st5">
			<g>
				<polygon class="st31" points="138.7,171.2 142.2,167.7 137.4,211.8 134,215.3 				"/>
			</g>
			<g>
				<polygon class="st31" points="141.2,147.7 144.7,144.3 142.2,167.7 138.7,171.2 				"/>
			</g>
			<g>
				<polygon class="st20" points="116.5,147.7 120,144.3 144.7,144.3 141.2,147.7 				"/>
			</g>
			<g>
				<path class="st22" d="M109.6,213.8c0-0.4,0.1-0.7,0.1-1.1c0.1-1.3,0.3-2.7,0.4-4c0.1-1.1,0.2-2.1,0.3-3.1
					c0.1-1.3,0.3-2.6,0.4-3.8c0-0.3,0.1-0.6,0.1-0.9c0.1-0.6,0.1-1.1,0.2-1.6c0.1-1.6,0.3-3,0.3-4.2l5-47.4h24.7l-2.5,23.5
					l-4.7,44.1h-24.5C109.5,214.8,109.6,214.3,109.6,213.8z"/>
			</g>
		</g>
		<g class="st5">
			<g class="st5">
				<g>
					<defs>
						<path id="SVGID_11_" d="M129.1,271.9l-3.5,3.5c1.4-1.4,2.4-3.3,2.6-5.4l3.5-3.5C131.4,268.6,130.5,270.5,129.1,271.9z"/>
					</defs>
					<clipPath id="SVGID_12_">
						<use xlink:href="#SVGID_11_"  style="overflow:visible;"/>
					</clipPath>
					<g class="st34">
						<path class="st25" d="M128.2,270l3.5-3.5v0.1l-3.5,3.5V270"/>
						<path class="st19" d="M128.2,270.1l3.5-3.5c0,0.4-0.1,0.7-0.2,1l-3.5,3.5C128.1,270.8,128.1,270.5,128.2,270.1"/>
						<path class="st18" d="M128,271.2l3.5-3.5c-0.1,0.4-0.2,0.7-0.3,1.1l-3.5,3.5C127.8,271.9,127.9,271.5,128,271.2"/>
						<path class="st17" d="M127.6,272.2l3.5-3.5c-0.2,0.4-0.4,0.9-0.6,1.2l-3.5,3.5C127.3,273.1,127.5,272.7,127.6,272.2"/>
						<path class="st16" d="M127,273.5l3.5-3.5c-0.4,0.7-0.9,1.4-1.5,1.9l-3.5,3.5C126.2,274.8,126.6,274.2,127,273.5"/>
					</g>
				</g>
			</g>
			<g>
				<polygon class="st20" points="78.8,219.2 82.3,215.7 109.4,215.7 105.9,219.2 				"/>
			</g>
			<g class="st5">
				<g>
					<defs>
						<path id="SVGID_13_" d="M105.9,219.2l3.5-3.5c0,0.6,0.1,1.3,0.1,1.9c0,0.5,0.1,1,0.1,1.5c0.1,1.4,0.2,2.8,0.2,4.3
							c0.4,6.3,0.6,11.9,0.6,17l-3.5,3.5c0-5-0.2-10.7-0.6-17c-0.1-1.4-0.2-2.8-0.2-4.3c0-0.5-0.1-1-0.1-1.5
							C106,220.5,105.9,219.8,105.9,219.2z"/>
					</defs>
					<clipPath id="SVGID_14_">
						<use xlink:href="#SVGID_13_"  style="overflow:visible;"/>
					</clipPath>
					<g class="st35">
						<path class="st26" d="M105.9,219.2l3.5-3.5c0,0.6,0.1,1.3,0.1,1.9c0,0.5,0.1,1,0.1,1.5c0.1,1.4,0.2,2.8,0.2,4.3
							c0.4,6.3,0.6,11.9,0.6,17l-3.5,3.5c0-5-0.2-10.7-0.6-17c-0.1-1.4-0.2-2.8-0.2-4.3c0-0.5-0.1-1-0.1-1.5
							C106,220.5,105.9,219.8,105.9,219.2"/>
					</g>
				</g>
			</g>
			<g>
				<polygon class="st31" points="133.6,219.2 137.1,215.7 131.7,266.5 128.2,270 				"/>
			</g>
			<g>
				<polygon class="st20" points="109.1,219.2 112.6,215.7 137.1,215.7 133.6,219.2 				"/>
			</g>
			<g>
				<path class="st22" d="M109.1,219.2h24.5l-5.4,50.8c-0.5,4.6-4.4,8.1-9,8.1H81.8c-0.3,0-0.5,0-0.8,0c-0.1,0-0.2,0-0.3,0
					c-0.2,0-0.4,0-0.5-0.1c-0.1,0-0.2,0-0.3-0.1c-0.2,0-0.3-0.1-0.5-0.1c-0.1,0-0.2,0-0.3-0.1l-0.4-58.5h27.1c0,0.6,0.1,1.3,0.1,1.9
					c0,0.5,0.1,1,0.1,1.5c0.1,1.4,0.2,2.8,0.2,4.3c0.4,6.3,0.6,11.9,0.6,17c0.4-5,0.9-10.7,1.5-17c0.1-1.4,0.3-2.9,0.4-4.3
					c0-0.5,0.1-1,0.1-1.5C109,220.5,109,219.8,109.1,219.2z"/>
			</g>
		</g>
		<g class="st5">
			<g>
				<polygon class="st36" points="148.4,28 151.9,24.5 163.4,24.5 159.9,28 				"/>
			</g>
			<g>
				<polygon class="st37" points="169.1,36.1 172.6,32.7 176.6,68.8 173.2,72.3 				"/>
			</g>
			<g class="st5">
				<g>
					<defs>
						<path id="SVGID_15_" d="M159.9,28l3.5-3.5c4.7,0,8.6,3.5,9.1,8.2l-3.5,3.5C168.6,31.5,164.7,28,159.9,28z"/>
					</defs>
					<clipPath id="SVGID_16_">
						<use xlink:href="#SVGID_15_"  style="overflow:visible;"/>
					</clipPath>
					<g class="st38">
						<path class="st39" d="M159.9,28l3.5-3.5c0.1,0,0.1,0,0.2,0l-3.5,3.5C160.2,28,160.1,28,159.9,28"/>
						<path class="st40" d="M160.3,28l3.5-3.5c0.3,0,0.7,0,1,0.1l-3.5,3.5C160.9,28,160.6,28,160.3,28"/>
						<path class="st41" d="M161.3,28.1l3.5-3.5c0.4,0,0.7,0.1,1,0.2l-3.5,3.5C161.9,28.2,161.6,28.1,161.3,28.1"/>
						<path class="st42" d="M162.3,28.3l3.5-3.5c0.4,0.1,0.7,0.2,1.1,0.4l-3.5,3.5C163.1,28.5,162.7,28.4,162.3,28.3"/>
						<path class="st43" d="M163.4,28.6l3.5-3.5c0.4,0.2,0.9,0.4,1.3,0.6l-3.5,3.5C164.3,29,163.9,28.8,163.4,28.6"/>
						<path class="st44" d="M164.7,29.3l3.5-3.5c1.7,1,3,2.5,3.8,4.4l-3.5,3.5C167.7,31.8,166.4,30.3,164.7,29.3"/>
						<path class="st43" d="M168.4,33.7l3.5-3.5c0.2,0.4,0.3,0.9,0.4,1.4l-3.5,3.5C168.8,34.5,168.7,34.1,168.4,33.7"/>
						<path class="st42" d="M168.9,35l3.5-3.5c0.1,0.4,0.2,0.7,0.2,1.1l-3.5,3.5C169.1,35.8,168.9,35.4,168.9,35"/>
					</g>
				</g>
			</g>
			<g>
				<path class="st45" d="M148.7,60.6c0-0.3-0.1-0.7-0.1-1L148.4,28H160c4.7,0,8.6,3.5,9.1,8.2l4,36.2h-23.5c0-0.4-0.1-0.8-0.1-1.2
					c0-0.3,0-0.5-0.1-0.8c0-0.4-0.1-0.8-0.1-1.3c0-0.3,0-0.6-0.1-0.9c0-0.4-0.1-0.8-0.1-1.3c0-0.6-0.1-1.1-0.1-1.6
					c0-0.2,0-0.3,0-0.5c0-0.5-0.1-1-0.1-1.5c0-0.2,0-0.4-0.1-0.7c-0.1-0.6-0.1-1.2-0.2-1.8C148.7,60.8,148.7,60.7,148.7,60.6z"/>
			</g>
		</g>
		<g class="st5">
			<g class="st5">
				<g>
					<defs>
						<path id="SVGID_17_" d="M207.3,30.7l3.5-3.5c1.6-1.6,3.9-2.7,6.4-2.7l-3.5,3.5C211.2,28,208.9,29,207.3,30.7z"/>
					</defs>
					<clipPath id="SVGID_18_">
						<use xlink:href="#SVGID_17_"  style="overflow:visible;"/>
					</clipPath>
					<g class="st46">
						<path class="st47" d="M207.3,30.7l3.5-3.5c0.9-0.9,1.9-1.6,3.1-2l-3.5,3.5C209.3,29.1,208.2,29.8,207.3,30.7"/>
						<path class="st48" d="M210.4,28.6l3.5-3.5c0.4-0.2,0.9-0.3,1.3-0.4l-3.5,3.5C211.3,28.3,210.9,28.4,210.4,28.6"/>
						<path class="st49" d="M211.8,28.2l3.5-3.5c0.4-0.1,0.7-0.1,1.1-0.2l-3.5,3.5C212.4,28.1,212.1,28.1,211.8,28.2"/>
						<path class="st39" d="M212.9,28l3.5-3.5c0.3,0,0.6,0,0.8,0l-3.5,3.5C213.4,28,213.2,28,212.9,28"/>
					</g>
				</g>
			</g>
			<g>
				<polygon class="st36" points="213.7,28 217.2,24.5 219.4,24.5 215.9,28 				"/>
			</g>
			<g>
				<polygon class="st50" points="215.9,28 219.4,24.5 219.7,68.8 216.2,72.3 				"/>
			</g>
			<g>
				<path class="st45" d="M216.2,72.3h-13.8l2.3-35.8c0.3-4.8,4.3-8.5,9-8.5h2.3L216.2,72.3z"/>
			</g>
		</g>
		<g class="st5">
			<g>
				<polygon class="st51" points="149.9,76.2 153.4,72.7 177.1,72.7 173.6,76.2 				"/>
			</g>
			<g>
				<polygon class="st52" points="173.6,76.2 177.1,72.7 184.6,140.3 181.1,143.7 				"/>
			</g>
			<g>
				<path class="st53" d="M181.1,143.7h-24.9l-3.4-31.8c-0.5-3.9-1-9-1.4-15.2c-0.5-6.3-1-12.8-1.5-19.7c0-0.3,0-0.5-0.1-0.8h23.8
					L181.1,143.7z"/>
			</g>
		</g>
		<g class="st5">
			<g>
				<polygon class="st51" points="202.1,76.2 205.6,72.7 219.7,72.7 216.2,76.2 				"/>
			</g>
			<g>
				<polygon class="st54" points="216.2,76.2 219.7,72.7 219.9,140.3 216.4,143.7 				"/>
			</g>
			<g>
				<polygon class="st53" points="197.7,143.7 202.1,76.2 216.2,76.2 216.4,143.7 				"/>
			</g>
		</g>
		<g class="st5">
			<g class="st5">
				<g>
					<defs>
						<path id="SVGID_19_" d="M186.9,195.2l3.5-3.5c0.2,1.2,0.4,2.6,0.6,4.2c0.1,0.5,0.1,1.1,0.2,1.6c0,0.3,0.1,0.6,0.1,0.9
							c0.1,1.2,0.3,2.4,0.4,3.8c0.1,1,0.2,2,0.3,3.1c0.1,1.3,0.3,2.6,0.4,3.9c0,0.4,0.1,0.8,0.1,1.2s0.1,0.9,0.1,1.3l-3.5,3.5
							c0-0.4-0.1-0.9-0.1-1.3s-0.1-0.8-0.1-1.2c-0.1-1.3-0.3-2.6-0.4-3.9c-0.1-1.1-0.2-2.1-0.3-3.1c-0.1-1.3-0.3-2.6-0.4-3.8
							c0-0.3-0.1-0.6-0.1-0.9c-0.1-0.6-0.1-1.1-0.2-1.6C187.2,197.8,186.9,196.4,186.9,195.2z"/>
					</defs>
					<clipPath id="SVGID_20_">
						<use xlink:href="#SVGID_19_"  style="overflow:visible;"/>
					</clipPath>
					<g class="st55">
						<path class="st27" d="M186.9,195.2l3.5-3.5c0.2,1.2,0.4,2.6,0.6,4.2c0.1,0.5,0.1,1.1,0.2,1.6c0,0.3,0.1,0.6,0.1,0.9
							c0.1,1.2,0.3,2.4,0.4,3.8c0,0.2,0,0.3,0.1,0.5l-3.5,3.5c0-0.2,0-0.3-0.1-0.5c-0.1-1.3-0.3-2.6-0.4-3.8c0-0.3-0.1-0.6-0.1-0.9
							c-0.1-0.6-0.1-1.1-0.2-1.6C187.2,197.8,186.9,196.4,186.9,195.2"/>
						<path class="st26" d="M188.2,206.1l3.5-3.5c0.1,0.8,0.2,1.7,0.3,2.6c0.1,1.3,0.3,2.6,0.4,3.9l0,0l-3.5,3.5l0,0
							c-0.1-1.3-0.3-2.6-0.4-3.9C188.4,207.8,188.3,206.9,188.2,206.1"/>
						<path class="st27" d="M188.9,212.6l3.5-3.5c0,0.4,0.1,0.8,0.1,1.2s0.1,0.9,0.1,1.3l-3.5,3.5c0-0.4-0.1-0.9-0.1-1.3
							C188.9,213.5,188.9,213.1,188.9,212.6"/>
					</g>
				</g>
			</g>
			<g>
				<polygon class="st23" points="181.6,147.6 184.9,144.1 190.3,191.7 186.9,195.2 				"/>
			</g>
			<g>
				<polygon class="st20" points="156.7,147.6 160.1,144.1 184.9,144.1 181.6,147.6 				"/>
			</g>
			<g>
				<path class="st22" d="M156.7,147.6h24.9l5.3,47.6c0.2,1.2,0.4,2.6,0.6,4.2c0.1,0.5,0.1,1.1,0.2,1.6c0,0.3,0.1,0.6,0.1,0.9
					c0.1,1.2,0.3,2.4,0.4,3.8c0.1,1,0.2,2,0.3,3.1c0.1,1.3,0.3,2.6,0.4,3.9c0,0.4,0.1,0.8,0.1,1.2s0.1,0.9,0.1,1.3h-25.4l-3.5-33
					L156.7,147.6z"/>
			</g>
		</g>
		<g class="st5">
			<g>
				<polygon class="st20" points="197.4,147.6 200.9,144.1 219.9,144.1 216.6,147.6 				"/>
			</g>
			<g>
				<polygon class="st21" points="216.6,147.6 219.9,144.1 220.4,211.7 216.9,215.2 				"/>
			</g>
			<g>
				<path class="st22" d="M193.6,213.5c0-0.2,0-0.5,0-0.7c0-1.4,0.1-2.8,0.1-4.1c0-1.1,0.1-2.1,0.1-3.1c0-1.3,0.1-2.6,0.2-3.8
					c0-0.3,0-0.6,0-0.9c0-0.6,0.1-1.1,0.1-1.6c0.1-1.6,0.2-3,0.2-4.2l3.1-47.6h19.2l0.3,67.6h-23.3
					C193.6,214.6,193.6,214.1,193.6,213.5z"/>
			</g>
		</g>
		<g class="st5">
			<g>
				<polygon class="st20" points="164.2,219 167.7,215.6 193.1,215.6 189.6,219 				"/>
			</g>
			<g class="st5">
				<g>
					<defs>
						<path id="SVGID_21_" d="M189.6,219l3.5-3.5c0.1,0.7,0.2,1.4,0.3,2.1c0.1,0.5,0.1,0.9,0.2,1.4c0.2,1.4,0.4,2.9,0.6,4.3
							c0.8,6.3,1.5,11.9,2,17l-3.5,3.5c-0.5-5-1.1-10.7-2-17c-0.2-1.5-0.4-2.9-0.6-4.3c-0.1-0.5-0.1-0.9-0.2-1.4
							C189.8,220.5,189.7,219.7,189.6,219z"/>
					</defs>
					<clipPath id="SVGID_22_">
						<use xlink:href="#SVGID_21_"  style="overflow:visible;"/>
					</clipPath>
					<g class="st56">
						<path class="st27" d="M189.6,219l3.5-3.5c0.1,0.7,0.2,1.4,0.3,2.1c0.1,0.5,0.1,0.9,0.2,1.4c0.2,1.4,0.4,2.9,0.6,4.3
							c0.6,4.4,1.1,8.5,1.5,12.2l-3.5,3.5c-0.4-3.8-0.9-7.9-1.5-12.2c-0.2-1.5-0.4-2.9-0.6-4.3c-0.1-0.5-0.1-0.9-0.2-1.4
							C189.8,220.5,189.7,219.7,189.6,219"/>
						<path class="st26" d="M192.1,239.1l3.5-3.5c0.2,1.6,0.3,3.2,0.5,4.7l-3.5,3.5C192.4,242.3,192.3,240.7,192.1,239.1"/>
					</g>
				</g>
			</g>
			<g>
				<polygon class="st20" points="193.4,219 196.9,215.6 220.4,215.6 216.9,219 				"/>
			</g>
			<g>
				<polygon class="st21" points="216.9,219 220.4,215.6 220.7,274.5 217.2,277.9 				"/>
			</g>
			<g>
				<path class="st22" d="M216.8,278c-0.1,0-0.2,0-0.3,0c-0.3,0-0.5,0-0.8,0h-37c-4.7,0-8.6-3.5-9.1-8.2l-5.4-50.8h25.4
					c0.1,0.7,0.2,1.4,0.3,2.1c0.1,0.5,0.1,0.9,0.2,1.4c0.2,1.4,0.4,2.9,0.6,4.3c0.8,6.3,1.5,11.9,2,17c0.2-5,0.4-10.7,0.6-17
					c0-1.4,0.1-2.8,0.1-4.1c0-0.4,0-0.7,0-1.1c0-0.9,0.1-1.7,0.1-2.6H217l0.3,58.9C217.1,278,216.9,278,216.8,278z"/>
			</g>
		</g>
		<g class="st5">
			<g>
				<polygon class="st10" points="246.8,38 250.2,34.5 246.9,69.1 243.4,72.6 				"/>
			</g>
			<g>
				<polygon class="st51" points="218.9,28 222.4,24.5 241.1,24.5 237.6,28 				"/>
			</g>
			<g class="st5">
				<g>
					<defs>
						<path id="SVGID_23_" d="M237.6,28l3.5-3.5c5.4,0,9.6,4.7,9.1,10l-3.5,3.5C247.3,32.7,242.9,28,237.6,28z"/>
					</defs>
					<clipPath id="SVGID_24_">
						<use xlink:href="#SVGID_23_"  style="overflow:visible;"/>
					</clipPath>
					<g class="st57">
						<path class="st58" d="M237.6,28l3.5-3.5c0.1,0,0.1,0,0.2,0l-3.5,3.5C237.8,28,237.7,28,237.6,28"/>
						<path class="st59" d="M237.9,28l3.5-3.5c0.4,0,0.7,0,1,0.1l-3.5,3.5C238.4,28,238.2,28,237.9,28"/>
						<path class="st60" d="M238.9,28.1l3.5-3.5c0.4,0,0.7,0.1,1,0.2l-3.5,3.5C239.6,28.2,239.2,28.1,238.9,28.1"/>
						<path class="st61" d="M239.9,28.3l3.5-3.5c0.4,0.1,0.7,0.2,1.1,0.4l-3.5,3.5C240.7,28.5,240.3,28.4,239.9,28.3"/>
						<path class="st62" d="M240.9,28.6l3.5-3.5c0.4,0.2,0.9,0.4,1.3,0.6l-3.5,3.5C241.9,29,241.4,28.8,240.9,28.6"/>
						<path class="st63" d="M242.3,29.3l3.5-3.5c1.7,1,3,2.6,3.8,4.4l-3.5,3.5C245.3,31.8,243.9,30.3,242.3,29.3"/>
						<path class="st62" d="M246.1,33.7l3.5-3.5c0.2,0.4,0.3,0.9,0.4,1.4l-3.5,3.5C246.4,34.6,246.3,34.1,246.1,33.7"/>
						<path class="st61" d="M246.4,35l3.5-3.5c0.1,0.4,0.2,0.7,0.2,1.1l-3.5,3.5C246.7,35.8,246.6,35.4,246.4,35"/>
						<path class="st60" d="M246.7,36.1l3.5-3.5c0,0.3,0.1,0.7,0.1,1.1l-3.5,3.5C246.8,36.8,246.8,36.5,246.7,36.1"/>
						<path class="st59" d="M246.8,37.2l3.5-3.5c0,0.3,0,0.5,0,0.8l-3.5,3.5C246.8,37.7,246.8,37.5,246.8,37.2"/>
					</g>
				</g>
			</g>
			<g>
				<path class="st53" d="M237.6,28c5.4,0,9.6,4.7,9.1,10l-3.3,34.5h-24.3l-0.2-44.6L237.6,28L237.6,28z"/>
			</g>
		</g>
		<g class="st5">
			<g>
				<polygon class="st13" points="243.1,76.4 246.6,72.9 240.2,140.5 236.7,144 				"/>
			</g>
			<g>
				<polygon class="st36" points="219.2,76.4 222.7,72.9 246.6,72.9 243.1,76.4 				"/>
			</g>
			<g>
				<polygon class="st45" points="243.1,76.4 236.7,144 219.4,144 219.2,76.4 				"/>
			</g>
		</g>
		<g class="st5">
			<g>
				<polygon class="st13" points="236.3,147.9 239.8,144.4 233.4,211.9 229.9,215.4 				"/>
			</g>
			<g>
				<polygon class="st36" points="219.6,147.9 222.9,144.4 239.8,144.4 236.3,147.9 				"/>
			</g>
			<g>
				<polygon class="st45" points="236.3,147.9 229.9,215.4 219.9,215.4 219.6,147.9 				"/>
			</g>
		</g>
		<g class="st5">
			<g class="st5">
				<g>
					<defs>
						<path id="SVGID_25_" d="M225.6,271.9l-3.5,3.5c0.1-0.1,0.1-0.1,0.2-0.2l0.1-0.1l3.5-3.5l-0.1,0.1
							C225.7,271.8,225.7,271.8,225.6,271.9z"/>
					</defs>
					<clipPath id="SVGID_26_">
						<use xlink:href="#SVGID_25_"  style="overflow:visible;"/>
					</clipPath>
					<g class="st64">
						<path class="st16" d="M222.4,275.1l3.5-3.5l-0.1,0.1c-0.1,0.1-0.1,0.1-0.2,0.2l-3.5,3.5c0.1-0.1,0.1-0.1,0.2-0.2
							C222.4,275.1,222.4,275.1,222.4,275.1"/>
					</g>
				</g>
			</g>
			<g class="st5">
				<g>
					<defs>
						<path id="SVGID_27_" d="M223.8,273.1l3.5-3.5c-0.2,0.3-0.3,0.5-0.4,0.7l-0.1,0.1c-0.1,0.2-0.3,0.4-0.4,0.6l-0.1,0.1
							c-0.1,0.2-0.3,0.3-0.4,0.5l-3.5,3.5c0.1-0.1,0.3-0.3,0.4-0.5l0.1-0.1c0.1-0.2,0.3-0.4,0.4-0.6l0.1-0.1
							C223.4,273.6,223.6,273.4,223.8,273.1z"/>
					</defs>
					<clipPath id="SVGID_28_">
						<use xlink:href="#SVGID_27_"  style="overflow:visible;"/>
					</clipPath>
					<g class="st65">
						<path class="st17" d="M223.8,273.1l3.5-3.5c-0.1,0.2-0.1,0.3-0.2,0.4l-3.5,3.5C223.6,273.4,223.7,273.2,223.8,273.1"/>
						<path class="st16" d="M223.6,273.5l3.5-3.5c-0.1,0.1-0.1,0.2-0.2,0.3l-0.1,0.1c-0.1,0.2-0.3,0.4-0.4,0.6l-0.1,0.1
							c-0.1,0.2-0.3,0.3-0.4,0.5l-3.5,3.5c0.1-0.1,0.3-0.3,0.4-0.5l0.1-0.1c0.1-0.2,0.3-0.4,0.4-0.6l0.1-0.1
							C223.4,273.7,223.4,273.6,223.6,273.5"/>
					</g>
				</g>
			</g>
			<g class="st5">
				<g>
					<defs>
						<path id="SVGID_29_" d="M224.7,269.9l3.5-3.5c0,0.3-0.1,0.5-0.1,0.8c0,0.1,0,0.1,0,0.2c0,0.2-0.1,0.5-0.2,0.7
							c-0.1,0.3-0.2,0.5-0.2,0.7c0,0.1,0,0.1-0.1,0.2c-0.1,0.2-0.2,0.4-0.3,0.7l-3.5,3.5c0.1-0.2,0.2-0.4,0.3-0.7
							c0-0.1,0-0.1,0.1-0.2c0.1-0.2,0.2-0.4,0.2-0.7c0.1-0.2,0.1-0.5,0.2-0.7c0-0.1,0-0.1,0-0.2
							C224.6,270.4,224.7,270.1,224.7,269.9z"/>
					</defs>
					<clipPath id="SVGID_30_">
						<use xlink:href="#SVGID_29_"  style="overflow:visible;"/>
					</clipPath>
					<g class="st66">
						<path class="st25" d="M224.7,269.9l3.5-3.5c0,0.1,0,0.1,0,0.2l-3.5,3.5C224.7,270,224.7,269.9,224.7,269.9"/>
						<path class="st19" d="M224.7,270.1l3.5-3.5c0,0.2-0.1,0.4-0.1,0.6c0,0.1,0,0.1,0,0.2s-0.1,0.2-0.1,0.4l-3.5,3.5
							c0-0.1,0.1-0.2,0.1-0.4c0-0.1,0-0.1,0-0.2C224.6,270.4,224.7,270.3,224.7,270.1"/>
						<path class="st18" d="M224.4,271.2l3.5-3.5c0,0.1-0.1,0.2-0.1,0.4c-0.1,0.3-0.2,0.5-0.2,0.7l-3.5,3.5c0.1-0.2,0.1-0.4,0.2-0.7
							C224.4,271.4,224.4,271.3,224.4,271.2"/>
						<path class="st17" d="M224.2,272.2l3.5-3.5l0,0c0,0.1,0,0.1-0.1,0.2c-0.1,0.2-0.2,0.4-0.3,0.7l-3.5,3.5
							c0.1-0.2,0.2-0.4,0.3-0.7C224.1,272.4,224.1,272.3,224.2,272.2C224.1,272.3,224.1,272.2,224.2,272.2"/>
					</g>
				</g>
			</g>
			<g>
				<polygon class="st7" points="229.4,219.3 232.9,215.8 228.2,266.4 224.7,269.9 				"/>
			</g>
			<g>
				<polygon class="st20" points="219.9,219.3 223.4,215.8 232.9,215.8 229.4,219.3 				"/>
			</g>
			<g>
				<path class="st22" d="M219.9,219.3h9.6l-4.8,50.6c0,0.3-0.1,0.5-0.1,0.8c0,0.1,0,0.1,0,0.2c0,0.2-0.1,0.5-0.2,0.7
					c-0.1,0.3-0.2,0.5-0.2,0.7c0,0.1,0,0.1-0.1,0.2c-0.1,0.2-0.2,0.4-0.3,0.7c-0.2,0.3-0.3,0.5-0.4,0.7l-0.1,0.1
					c-0.1,0.2-0.3,0.4-0.4,0.6l-0.1,0.1c-0.1,0.2-0.3,0.3-0.4,0.5l-0.1,0.1c-0.2,0.2-0.3,0.3-0.5,0.5l-0.1,0.1
					c-0.1,0.1-0.3,0.3-0.5,0.4l-0.1,0.1c-0.2,0.1-0.4,0.3-0.6,0.4c-0.1,0-0.1,0.1-0.2,0.1c-0.1,0-0.1,0.1-0.2,0.1L219.9,219.3z"/>
			</g>
		</g>
	</g>
</g>
</svg>
