<?xml version="1.0" encoding="utf-8"?>
<!-- Generator: Adobe Illustrator 23.0.6, SVG Export Plug-In . SVG Version: 6.00 Build 0)  -->
<svg version="1.1" id="Layer_1" xmlns="http://www.w3.org/2000/svg" xmlns:xlink="http://www.w3.org/1999/xlink" x="0px" y="0px"
	 viewBox="0 0 50 50" style="enable-background:new 0 0 50 50;" xml:space="preserve">
<style type="text/css">
	.st0{display:none;}
	.st1{display:inline;fill:#CCCCCC;}
	.st2{display:inline;fill:#ED5DA4;}
	.st3{display:inline;fill:none;stroke:#EE5DA5;stroke-width:3;stroke-miterlimit:10;}
	.st4{display:inline;}
	.st5{enable-background:new    ;}
	.st6{fill:#006B34;}
	.st7{fill:#006330;}
	.st8{fill:#008842;}
	.st9{fill:#3B4D54;}
	.st10{fill:#37474D;}
	.st11{fill:#4B626B;}
	.st12{fill:#A3770C;}
	.st13{fill:#966E0B;}
	.st14{fill:#D09810;}
	.st15{clip-path:url(#SVGID_2_);enable-background:new    ;}
	.st16{fill:#00562A;}
	.st17{fill:#005A2C;}
	.st18{fill:#005D2D;}
	.st19{fill:#00602F;}
	.st20{fill:#006130;}
	.st21{fill:#006632;}
	.st22{fill:#008B44;}
	.st23{fill:#006933;}
	.st24{clip-path:url(#SVGID_4_);enable-background:new    ;}
	.st25{fill:#006431;}
	.st26{fill:#006732;}
	.st27{fill:#006A34;}
	.st28{fill:#006E35;}
	.st29{fill:#007137;}
	.st30{clip-path:url(#SVGID_6_);enable-background:new    ;}
	.st31{fill:#006230;}
	.st32{clip-path:url(#SVGID_8_);enable-background:new    ;}
	.st33{clip-path:url(#SVGID_10_);enable-background:new    ;}
	.st34{clip-path:url(#SVGID_12_);enable-background:new    ;}
	.st35{clip-path:url(#SVGID_14_);enable-background:new    ;}
	.st36{fill:#946D0B;}
	.st37{fill:#A1760C;}
	.st38{clip-path:url(#SVGID_16_);enable-background:new    ;}
	.st39{fill:#936B0B;}
	.st40{fill:#986F0B;}
	.st41{fill:#9D730C;}
	.st42{fill:#A2760C;}
	.st43{fill:#A77A0D;}
	.st44{fill:#AC7E0D;}
	.st45{fill:#D49B10;}
	.st46{clip-path:url(#SVGID_18_);enable-background:new    ;}
	.st47{fill:#84600A;}
	.st48{fill:#89640A;}
	.st49{fill:#8E680B;}
	.st50{fill:#9C720C;}
	.st51{fill:#36464C;}
	.st52{fill:#3A4C53;}
	.st53{fill:#4D646D;}
	.st54{fill:#394950;}
	.st55{clip-path:url(#SVGID_20_);enable-background:new    ;}
	.st56{clip-path:url(#SVGID_22_);enable-background:new    ;}
	.st57{clip-path:url(#SVGID_24_);enable-background:new    ;}
	.st58{fill:#35454B;}
	.st59{fill:#37474E;}
	.st60{fill:#394A51;}
	.st61{fill:#3B4C53;}
	.st62{fill:#3D4F56;}
	.st63{fill:#3F5158;}
	.st64{clip-path:url(#SVGID_26_);enable-background:new    ;}
	.st65{clip-path:url(#SVGID_28_);enable-background:new    ;}
	.st66{clip-path:url(#SVGID_30_);enable-background:new    ;}
</style>
<g>
	<g id="hor" class="st0">
		<path class="st1" d="M18.8,4.2c0,6.5-10.1,6.5-10.1,0S18.8-2.4,18.8,4.2z"/>
		<path class="st1" d="M18.8,49.6c0,6.5-10.1,6.5-10.1,0S18.8,43.1,18.8,49.6z"/>
		<path class="st2" d="M41.3,4.2c0,6.5-10.1,6.5-10.1,0S41.3-2.4,41.3,4.2z"/>
		<path class="st1" d="M41.3,26.9c0,6.5-10.1,6.5-10.1,0S41.3,20.4,41.3,26.9z"/>
		<path class="st2" d="M41.3,49.6c0,6.5-10.1,6.5-10.1,0S41.3,43.1,41.3,49.6z"/>
		<line class="st3" x1="33.7" y1="7.1" x2="15.2" y2="25.8"/>
		<line class="st3" x1="33.8" y1="47.5" x2="15.1" y2="29"/>
		<path class="st2" d="M18.8,26.9c0,6.5-10.1,6.5-10.1,0S18.8,20.4,18.8,26.9z"/>
	</g>
</g>
<g class="st0">
	<g class="st4">
		<g class="st5">
			<g>
				<polygon class="st6" points="-47.5,100.3 -41.4,95.9 -40.7,163.4 -46.7,167.7 				"/>
			</g>
			<g>
				<polygon class="st7" points="-114.7,100.3 -108.6,95.9 -41.4,95.9 -47.5,100.3 				"/>
			</g>
			<g>
				<polygon class="st8" points="-47.5,100.3 -46.7,167.7 -113.9,167.7 -114.7,100.3 				"/>
			</g>
		</g>
		<g class="st5">
			<g>
				<polygon class="st6" points="-48.2,28.9 -42.1,24.6 -41.4,92 -47.5,96.4 				"/>
			</g>
			<g>
				<polygon class="st7" points="-115.4,28.9 -109.4,24.6 -42.1,24.6 -48.2,28.9 				"/>
			</g>
			<g>
				<polygon class="st8" points="-48.2,28.9 -47.5,96.4 -114.7,96.4 -115.4,28.9 				"/>
			</g>
		</g>
		<g class="st5">
			<g>
				<polygon class="st6" points="-49,-42.4 -42.9,-46.8 -42.2,20.7 -48.3,25.1 				"/>
			</g>
			<g>
				<polygon class="st7" points="-116.2,-42.4 -110.1,-46.8 -42.9,-46.8 -49,-42.4 				"/>
			</g>
			<g>
				<polygon class="st8" points="-49,-42.4 -48.3,25.1 -115.5,25.1 -116.2,-42.4 				"/>
			</g>
		</g>
		<g class="st5">
			<g>
				<polygon class="st6" points="-49.7,-113.7 -43.7,-118.1 -42.9,-50.6 -49,-46.3 				"/>
			</g>
			<g>
				<polygon class="st7" points="-116.9,-113.7 -110.9,-118.1 -43.7,-118.1 -49.7,-113.7 				"/>
			</g>
			<g>
				<polygon class="st8" points="-49.7,-113.7 -49,-46.3 -116.2,-46.3 -116.9,-113.7 				"/>
			</g>
		</g>
		<g class="st5">
			<g>
				<polygon class="st6" points="22.8,100.5 28.8,96.2 29.6,163.6 23.5,168 				"/>
			</g>
			<g>
				<polygon class="st7" points="-44.5,100.5 -38.4,96.2 28.8,96.2 22.8,100.5 				"/>
			</g>
			<g>
				<polygon class="st8" points="22.8,100.5 23.5,168 -43.7,168 -44.5,100.5 				"/>
			</g>
		</g>
		<g class="st5">
			<g>
				<polygon class="st6" points="22,29.2 28.1,24.8 28.8,92.3 22.7,96.6 				"/>
			</g>
			<g>
				<polygon class="st7" points="-45.2,29.2 -39.1,24.8 28.1,24.8 22,29.2 				"/>
			</g>
			<g>
				<polygon class="st8" points="22,29.2 22.7,96.6 -44.5,96.6 -45.2,29.2 				"/>
			</g>
		</g>
		<g class="st5">
			<g>
				<polygon class="st6" points="21.2,-42.2 27.3,-46.5 28,20.9 22,25.3 				"/>
			</g>
			<g>
				<polygon class="st7" points="-46,-42.2 -39.9,-46.5 27.3,-46.5 21.2,-42.2 				"/>
			</g>
			<g>
				<polygon class="st8" points="21.2,-42.2 22,25.3 -45.3,25.3 -46,-42.2 				"/>
			</g>
		</g>
		<g class="st5">
			<g>
				<polygon class="st6" points="20.5,-113.5 26.6,-117.9 27.3,-50.4 21.2,-46 				"/>
			</g>
			<g>
				<polygon class="st7" points="-46.7,-113.5 -40.7,-117.9 26.6,-117.9 20.5,-113.5 				"/>
			</g>
			<g>
				<polygon class="st8" points="20.5,-113.5 21.2,-46 -46,-46 -46.7,-113.5 				"/>
			</g>
		</g>
		<g class="st5">
			<g>
				<polygon class="st6" points="93,100.4 99,96 99.8,163.5 93.7,167.9 				"/>
			</g>
			<g>
				<polygon class="st7" points="25.7,100.4 31.8,96 99,96 93,100.4 				"/>
			</g>
			<g>
				<polygon class="st8" points="93,100.4 93.7,167.9 26.5,167.9 25.7,100.4 				"/>
			</g>
		</g>
		<g class="st5">
			<g>
				<polygon class="st6" points="92.2,29 98.3,24.7 99,92.2 92.9,96.5 				"/>
			</g>
			<g>
				<polygon class="st7" points="25,29 31.1,24.7 98.3,24.7 92.2,29 				"/>
			</g>
			<g>
				<polygon class="st8" points="92.2,29 92.9,96.5 25.7,96.5 25,29 				"/>
			</g>
		</g>
		<g class="st5">
			<g>
				<polygon class="st9" points="91.4,-42.3 97.5,-46.6 98.2,20.8 92.2,25.2 				"/>
			</g>
			<g>
				<polygon class="st10" points="24.2,-42.3 30.3,-46.6 97.5,-46.6 91.4,-42.3 				"/>
			</g>
			<g>
				<polygon class="st11" points="91.4,-42.3 92.2,25.2 24.9,25.2 24.2,-42.3 				"/>
			</g>
		</g>
		<g class="st5">
			<g>
				<polygon class="st12" points="90.7,-113.6 96.8,-118 97.5,-50.5 91.4,-46.2 				"/>
			</g>
			<g>
				<polygon class="st13" points="23.5,-113.6 29.5,-118 96.8,-118 90.7,-113.6 				"/>
			</g>
			<g>
				<polygon class="st14" points="90.7,-113.6 91.4,-46.2 24.2,-46.2 23.5,-113.6 				"/>
			</g>
		</g>
		<g class="st5">
			<g>
				<polygon class="st6" points="163.2,100.6 169.2,96.3 170,163.7 163.9,168.1 				"/>
			</g>
			<g>
				<polygon class="st7" points="96,100.6 102,96.3 169.2,96.3 163.2,100.6 				"/>
			</g>
			<g>
				<polygon class="st8" points="163.2,100.6 163.9,168.1 96.7,168.1 96,100.6 				"/>
			</g>
		</g>
		<g class="st5">
			<g>
				<polygon class="st12" points="162.4,29.3 168.5,24.9 169.2,92.4 163.1,96.8 				"/>
			</g>
			<g>
				<polygon class="st13" points="95.2,29.3 101.3,24.9 168.5,24.9 162.4,29.3 				"/>
			</g>
			<g>
				<polygon class="st14" points="162.4,29.3 163.1,96.8 95.9,96.8 95.2,29.3 				"/>
			</g>
		</g>
		<g class="st5">
			<g>
				<polygon class="st12" points="161.6,-42 167.7,-46.4 168.4,21.1 162.4,25.4 				"/>
			</g>
			<g>
				<polygon class="st13" points="94.4,-42 100.5,-46.4 167.7,-46.4 161.6,-42 				"/>
			</g>
			<g>
				<polygon class="st14" points="161.6,-42 162.4,25.4 95.1,25.4 94.4,-42 				"/>
			</g>
		</g>
		<g class="st5">
			<g>
				<polygon class="st9" points="160.9,-113.4 167,-117.7 167.7,-50.3 161.6,-45.9 				"/>
			</g>
			<g>
				<polygon class="st10" points="93.7,-113.4 99.7,-117.7 167,-117.7 160.9,-113.4 				"/>
			</g>
			<g>
				<polygon class="st11" points="160.9,-113.4 161.6,-45.9 94.4,-45.9 93.7,-113.4 				"/>
			</g>
		</g>
	</g>
</g>
<g id="Layer_3">
</g>
<g id="Layer_4">
	<g>
		<g class="st5">
			<g class="st5">
				<g>
					<defs>
						<path id="SVGID_1_" d="M10.3,6.9l0.5-0.5c0.2-0.2,0.6-0.4,0.9-0.4l-0.5,0.5C10.9,6.5,10.5,6.6,10.3,6.9z"/>
					</defs>
					<clipPath id="SVGID_2_">
						<use xlink:href="#SVGID_1_"  style="overflow:visible;"/>
					</clipPath>
					<g class="st15">
						<path class="st16" d="M10.3,6.9l0.5-0.5c0.1-0.1,0.3-0.2,0.5-0.3l-0.5,0.5C10.6,6.6,10.4,6.7,10.3,6.9"/>
						<path class="st17" d="M10.7,6.6L11.3,6c0.1,0,0.1,0,0.2-0.1l-0.5,0.5C10.9,6.5,10.8,6.5,10.7,6.6"/>
						<path class="st18" d="M10.9,6.5L11.5,6c0.1,0,0.1,0,0.2,0l-0.5,0.5C11.1,6.5,11,6.5,10.9,6.5"/>
						<path class="st19" d="M11.1,6.5l0.5-0.5c0,0,0.1,0,0.1,0l-0.5,0.5C11.2,6.5,11.1,6.5,11.1,6.5"/>
					</g>
				</g>
			</g>
			<g>
				<polygon class="st20" points="11.2,6.5 11.8,5.9 14.1,5.9 13.6,6.5 				"/>
			</g>
			<g>
				<polygon class="st21" points="13.6,6.5 14.1,5.9 14.1,12.5 13.6,13 				"/>
			</g>
			<g>
				<path class="st22" d="M13.6,13h-3.2L9.9,7.9c-0.1-0.8,0.5-1.5,1.3-1.5h2.3L13.6,13z"/>
			</g>
		</g>
		<g class="st5">
			<g>
				<polygon class="st20" points="10.5,13.6 11,13.1 14.1,13.1 13.6,13.6 				"/>
			</g>
			<g>
				<polygon class="st21" points="13.6,13.6 14.1,13.1 14.2,23 13.7,23.6 				"/>
			</g>
			<g>
				<polygon class="st22" points="11.4,23.6 10.5,13.6 13.6,13.6 13.7,23.6 				"/>
			</g>
		</g>
		<g class="st5">
			<g>
				<polygon class="st20" points="11.5,24.1 12,23.6 14.2,23.6 13.7,24.1 				"/>
			</g>
			<g>
				<polygon class="st21" points="13.7,24.1 14.2,23.6 14.2,33.6 13.7,34.1 				"/>
			</g>
			<g>
				<polygon class="st22" points="12.1,30.7 11.5,24.1 13.7,24.1 13.7,34.1 12.5,34.1 				"/>
			</g>
		</g>
		<g class="st5">
			<g>
				<polygon class="st20" points="12.5,34.7 13,34.2 14.2,34.2 13.7,34.7 				"/>
			</g>
			<g>
				<polygon class="st21" points="13.7,34.7 14.2,34.2 14.3,42.6 13.8,43.1 				"/>
			</g>
			<g>
				<path class="st22" d="M13.3,42.4C13.3,42.4,13.3,42.4,13.3,42.4c0-0.1,0-0.1,0-0.2l-0.7-7.5h1.2l0,8.4c0,0,0,0,0,0
					c0,0,0,0-0.1,0c0,0,0,0,0,0c0,0,0,0,0-0.1c0,0,0,0,0,0c0,0,0,0,0-0.1c0,0,0,0,0,0c0,0,0,0,0-0.1c0,0,0,0,0,0c0,0,0,0,0-0.1
					c0,0,0,0,0,0c0,0,0,0,0-0.1c0,0,0,0,0,0C13.3,42.5,13.3,42.4,13.3,42.4z"/>
			</g>
		</g>
		<g class="st5">
			<g>
				<polygon class="st20" points="14,6.5 14.5,5.9 15.3,5.9 14.7,6.5 				"/>
			</g>
			<g>
				<polygon class="st23" points="16.1,7.7 16.6,7.2 17,12.5 16.5,13 				"/>
			</g>
			<g class="st5">
				<g>
					<defs>
						<path id="SVGID_3_" d="M14.7,6.5l0.5-0.5c0.7,0,1.3,0.5,1.3,1.2l-0.5,0.5C16,7,15.4,6.5,14.7,6.5z"/>
					</defs>
					<clipPath id="SVGID_4_">
						<use xlink:href="#SVGID_3_"  style="overflow:visible;"/>
					</clipPath>
					<g class="st24">
						<path class="st19" d="M14.7,6.5l0.5-0.5c0,0,0,0,0,0L14.7,6.5C14.8,6.5,14.8,6.5,14.7,6.5"/>
						<path class="st25" d="M14.8,6.5l0.5-0.5c0,0,0.1,0,0.1,0l-0.5,0.5C14.9,6.5,14.8,6.5,14.8,6.5"/>
						<path class="st26" d="M14.9,6.5L15.4,6c0.1,0,0.1,0,0.1,0l-0.5,0.5C15,6.5,15,6.5,14.9,6.5"/>
						<path class="st27" d="M15.1,6.5L15.6,6c0.1,0,0.1,0,0.2,0.1l-0.5,0.5C15.2,6.5,15.1,6.5,15.1,6.5"/>
						<path class="st28" d="M15.2,6.6L15.8,6c0.1,0,0.1,0.1,0.2,0.1l-0.5,0.5C15.4,6.6,15.3,6.6,15.2,6.6"/>
						<path class="st29" d="M15.4,6.7L16,6.1c0.3,0.1,0.5,0.4,0.6,0.7L16,7.3C15.9,7,15.7,6.8,15.4,6.7"/>
						<path class="st28" d="M16,7.3l0.5-0.5c0,0.1,0,0.1,0.1,0.2l-0.5,0.5C16,7.4,16,7.4,16,7.3"/>
						<path class="st27" d="M16.1,7.5L16.6,7c0,0.1,0,0.1,0,0.2l-0.5,0.5C16.1,7.6,16.1,7.6,16.1,7.5"/>
						<path class="st26" d="M16.1,7.7l0.5-0.5c0,0,0,0,0,0L16.1,7.7C16.1,7.7,16.1,7.7,16.1,7.7"/>
					</g>
				</g>
			</g>
			<g>
				<path class="st22" d="M16.5,13h-2.5l0-6.6h0.7c0.7,0,1.3,0.5,1.3,1.2L16.5,13z"/>
			</g>
		</g>
		<g class="st5">
			<g class="st5">
				<g>
					<defs>
						<path id="SVGID_5_" d="M21.9,6.9l0.5-0.5c0.2-0.3,0.6-0.4,0.9-0.4l-0.5,0.5C22.4,6.5,22.1,6.6,21.9,6.9z"/>
					</defs>
					<clipPath id="SVGID_6_">
						<use xlink:href="#SVGID_5_"  style="overflow:visible;"/>
					</clipPath>
					<g class="st30">
						<path class="st16" d="M21.9,6.9l0.5-0.5c0.1-0.1,0.3-0.2,0.5-0.3l-0.5,0.5C22.2,6.6,22,6.7,21.9,6.9"/>
						<path class="st17" d="M22.3,6.6L22.8,6C22.9,6,23,6,23,6l-0.5,0.5C22.5,6.5,22.4,6.5,22.3,6.6"/>
						<path class="st18" d="M22.5,6.5L23,6c0.1,0,0.1,0,0.2,0l-0.5,0.5C22.6,6.5,22.6,6.5,22.5,6.5"/>
						<path class="st19" d="M22.7,6.5l0.5-0.5c0,0,0.1,0,0.1,0l-0.5,0.5C22.8,6.5,22.7,6.5,22.7,6.5"/>
					</g>
				</g>
			</g>
			<g>
				<polygon class="st20" points="22.8,6.5 23.3,5.9 24.5,5.9 24,6.5 				"/>
			</g>
			<g>
				<polygon class="st21" points="24,6.5 24.5,5.9 24.6,12.5 24,13 				"/>
			</g>
			<g>
				<path class="st22" d="M24,13h-3.1l0.6-5.4c0.1-0.7,0.7-1.2,1.3-1.2H24L24,13z"/>
			</g>
		</g>
		<g class="st5">
			<g>
				<polygon class="st23" points="16.6,13.6 17.1,13.1 17.9,23.1 17.4,23.6 				"/>
			</g>
			<g>
				<polygon class="st20" points="14.1,13.6 14.6,13.1 17.1,13.1 16.6,13.6 				"/>
			</g>
			<g>
				<polygon class="st22" points="16.6,13.6 17.4,23.6 14.1,23.6 14.1,13.6 				"/>
			</g>
		</g>
		<g class="st5">
			<g>
				<polygon class="st31" points="23.8,20.1 24.3,19.5 24,23.1 23.4,23.6 				"/>
			</g>
			<g>
				<polygon class="st31" points="24,18.9 24.5,18.4 24.3,19.5 23.8,20.1 				"/>
			</g>
			<g class="st5">
				<g>
					<defs>
						<path id="SVGID_7_" d="M24.1,17.6l0.5-0.5c0,0.1,0,0.1,0,0.2c0,0,0,0,0,0.1c0,0.1,0,0.1,0,0.2c0,0,0,0,0,0.1
							c0,0.1,0,0.1,0,0.2c0,0,0,0,0,0.1c0,0.1,0,0.1,0,0.2c0,0,0,0,0,0c0,0.1,0,0.1,0,0.2L24,18.8c0-0.1,0-0.1,0-0.2c0,0,0,0,0,0
							c0-0.1,0-0.1,0-0.2c0,0,0,0,0-0.1c0-0.1,0-0.1,0-0.2c0,0,0,0,0-0.1c0-0.1,0-0.1,0-0.2c0,0,0,0,0-0.1
							C24.1,17.8,24.1,17.7,24.1,17.6z"/>
					</defs>
					<clipPath id="SVGID_8_">
						<use xlink:href="#SVGID_7_"  style="overflow:visible;"/>
					</clipPath>
					<g class="st32">
						<path class="st25" d="M24.1,17.6l0.5-0.5c0,0.1,0,0.1,0,0.2c0,0,0,0,0,0.1c0,0.1,0,0.1,0,0.2c0,0,0,0,0,0.1c0,0.1,0,0.1,0,0.2
							c0,0,0,0,0,0.1c0,0.1,0,0.1,0,0.2c0,0,0,0,0,0c0,0.1,0,0.1,0,0.2L24,18.8c0-0.1,0-0.1,0-0.2c0,0,0,0,0,0c0-0.1,0-0.1,0-0.2
							c0,0,0,0,0-0.1c0-0.1,0-0.1,0-0.2c0,0,0,0,0-0.1c0-0.1,0-0.1,0-0.2c0,0,0,0,0-0.1C24.1,17.8,24.1,17.7,24.1,17.6"/>
					</g>
				</g>
			</g>
			<g>
				<polygon class="st21" points="24.1,13.6 24.6,13.1 24.6,17.1 24.1,17.6 				"/>
			</g>
			<g>
				<polygon class="st20" points="20.9,13.6 21.4,13.1 24.6,13.1 24.1,13.6 				"/>
			</g>
			<g>
				<path class="st22" d="M19.8,23.6l1-10H24l0,4c0,0.1,0,0.1,0,0.2c0,0,0,0,0,0.1c0,0.1,0,0.1,0,0.2c0,0,0,0,0,0.1
					c0,0.1,0,0.1,0,0.2c0,0,0,0,0,0.1c0,0.1,0,0.1,0,0.2c0,0,0,0,0,0c0,0.1,0,0.1,0,0.2L23.9,20l-0.4,3.5L19.8,23.6L19.8,23.6z"/>
			</g>
		</g>
		<g class="st5">
			<g class="st5">
				<g>
					<defs>
						<path id="SVGID_9_" d="M18,31.2l0.5-0.5c0,0.2,0,0.4,0,0.6c0,0.1,0,0.2,0,0.2c0,0,0,0.1,0,0.1c0,0.2,0,0.4,0,0.6
							c0,0.1,0,0.3,0,0.5c0,0.2,0,0.4,0,0.6c0,0.1,0,0.1,0,0.2c0,0.1,0,0.1,0,0.2l-0.5,0.5c0-0.1,0-0.1,0-0.2c0-0.1,0-0.1,0-0.2
							c0-0.2,0-0.4,0-0.6c0-0.2,0-0.3,0-0.5c0-0.2,0-0.4,0-0.6c0,0,0-0.1,0-0.1c0-0.1,0-0.2,0-0.2C18,31.6,18,31.4,18,31.2z"/>
					</defs>
					<clipPath id="SVGID_10_">
						<use xlink:href="#SVGID_9_"  style="overflow:visible;"/>
					</clipPath>
					<g class="st33">
						<path class="st26" d="M18,31.2l0.5-0.5c0,0.2,0,0.4,0,0.6c0,0.1,0,0.2,0,0.2c0,0,0,0.1,0,0.1c0,0.2,0,0.4,0,0.6
							c0,0.1,0,0.3,0,0.5c0,0.2,0,0.4,0,0.6c0,0.1,0,0.1,0,0.2c0,0.1,0,0.1,0,0.2l-0.5,0.5c0-0.1,0-0.1,0-0.2c0-0.1,0-0.1,0-0.2
							c0-0.2,0-0.4,0-0.6c0-0.2,0-0.3,0-0.5c0-0.2,0-0.4,0-0.6c0,0,0-0.1,0-0.1c0-0.1,0-0.2,0-0.2C18,31.6,18,31.4,18,31.2"/>
					</g>
				</g>
			</g>
			<g>
				<polygon class="st23" points="17.4,24.2 17.9,23.7 18.5,30.7 18,31.2 				"/>
			</g>
			<g>
				<polygon class="st20" points="14.1,24.2 14.6,23.7 17.9,23.7 17.4,24.2 				"/>
			</g>
			<g>
				<path class="st22" d="M14.1,24.2h3.3l0.6,7c0,0.2,0,0.4,0,0.6c0,0.1,0,0.2,0,0.2c0,0,0,0.1,0,0.1c0,0.2,0,0.4,0,0.6
					c0,0.1,0,0.3,0,0.5c0,0.2,0,0.4,0,0.6c0,0.1,0,0.1,0,0.2c0,0.1,0,0.1,0,0.2h-4L14.1,24.2z"/>
			</g>
		</g>
		<g class="st5">
			<g>
				<polygon class="st31" points="23,27.6 23.5,27.1 22.8,33.6 22.3,34.2 				"/>
			</g>
			<g>
				<polygon class="st31" points="23.4,24.2 23.9,23.7 23.5,27.1 23,27.6 				"/>
			</g>
			<g>
				<polygon class="st20" points="19.7,24.2 20.3,23.7 23.9,23.7 23.4,24.2 				"/>
			</g>
			<g>
				<path class="st22" d="M18.7,33.9c0-0.1,0-0.1,0-0.2c0-0.2,0-0.4,0.1-0.6c0-0.2,0-0.3,0-0.5c0-0.2,0-0.4,0.1-0.6c0,0,0-0.1,0-0.1
					c0-0.1,0-0.2,0-0.2c0-0.2,0-0.4,0-0.6l0.7-7h3.7L23,27.6l-0.7,6.5h-3.6C18.7,34.1,18.7,34,18.7,33.9z"/>
			</g>
		</g>
		<g class="st5">
			<g class="st5">
				<g>
					<defs>
						<path id="SVGID_11_" d="M21.6,42.5L21.1,43c0.2-0.2,0.4-0.5,0.4-0.8l0.5-0.5C21.9,42,21.8,42.3,21.6,42.5z"/>
					</defs>
					<clipPath id="SVGID_12_">
						<use xlink:href="#SVGID_11_"  style="overflow:visible;"/>
					</clipPath>
					<g class="st34">
						<path class="st25" d="M21.5,42.3l0.5-0.5v0L21.5,42.3L21.5,42.3"/>
						<path class="st19" d="M21.5,42.3l0.5-0.5c0,0.1,0,0.1,0,0.1l-0.5,0.5C21.5,42.4,21.5,42.3,21.5,42.3"/>
						<path class="st18" d="M21.4,42.4l0.5-0.5c0,0.1,0,0.1,0,0.2l-0.5,0.5C21.4,42.5,21.4,42.5,21.4,42.4"/>
						<path class="st17" d="M21.4,42.6l0.5-0.5c0,0.1-0.1,0.1-0.1,0.2l-0.5,0.5C21.3,42.7,21.4,42.7,21.4,42.6"/>
						<path class="st16" d="M21.3,42.8l0.5-0.5c-0.1,0.1-0.1,0.2-0.2,0.3L21.1,43C21.2,43,21.2,42.9,21.3,42.8"/>
					</g>
				</g>
			</g>
			<g>
				<polygon class="st20" points="14.2,34.7 14.7,34.2 18.7,34.2 18.2,34.7 				"/>
			</g>
			<g class="st5">
				<g>
					<defs>
						<path id="SVGID_13_" d="M18.2,34.7l0.5-0.5c0,0.1,0,0.2,0,0.3c0,0.1,0,0.1,0,0.2c0,0.2,0,0.4,0,0.6c0.1,0.9,0.1,1.8,0.1,2.5
							l-0.5,0.5c0-0.7,0-1.6-0.1-2.5c0-0.2,0-0.4,0-0.6c0-0.1,0-0.1,0-0.2C18.2,34.9,18.2,34.8,18.2,34.7z"/>
					</defs>
					<clipPath id="SVGID_14_">
						<use xlink:href="#SVGID_13_"  style="overflow:visible;"/>
					</clipPath>
					<g class="st35">
						<path class="st26" d="M18.2,34.7l0.5-0.5c0,0.1,0,0.2,0,0.3c0,0.1,0,0.1,0,0.2c0,0.2,0,0.4,0,0.6c0.1,0.9,0.1,1.8,0.1,2.5
							l-0.5,0.5c0-0.7,0-1.6-0.1-2.5c0-0.2,0-0.4,0-0.6c0-0.1,0-0.1,0-0.2C18.2,34.9,18.2,34.8,18.2,34.7"/>
					</g>
				</g>
			</g>
			<g>
				<polygon class="st31" points="22.3,34.7 22.8,34.2 22,41.7 21.5,42.3 				"/>
			</g>
			<g>
				<polygon class="st20" points="18.6,34.7 19.2,34.2 22.8,34.2 22.3,34.7 				"/>
			</g>
			<g>
				<path class="st22" d="M18.6,34.7h3.6l-0.8,7.5c-0.1,0.7-0.7,1.2-1.3,1.2h-5.5c0,0-0.1,0-0.1,0c0,0,0,0,0,0c0,0-0.1,0-0.1,0
					c0,0,0,0,0,0c0,0,0,0-0.1,0c0,0,0,0,0,0l-0.1-8.7h4c0,0.1,0,0.2,0,0.3c0,0.1,0,0.1,0,0.2c0,0.2,0,0.4,0,0.6
					c0.1,0.9,0.1,1.8,0.1,2.5c0.1-0.7,0.1-1.6,0.2-2.5c0-0.2,0-0.4,0.1-0.6c0-0.1,0-0.1,0-0.2C18.6,34.9,18.6,34.8,18.6,34.7z"/>
			</g>
		</g>
		<g class="st5">
			<g>
				<polygon class="st36" points="24.5,6.5 25,5.9 26.7,5.9 26.2,6.5 				"/>
			</g>
			<g>
				<polygon class="st37" points="27.5,7.7 28,7.2 28.6,12.5 28.1,13 				"/>
			</g>
			<g class="st5">
				<g>
					<defs>
						<path id="SVGID_15_" d="M26.2,6.5l0.5-0.5c0.7,0,1.3,0.5,1.3,1.2l-0.5,0.5C27.4,7,26.9,6.5,26.2,6.5z"/>
					</defs>
					<clipPath id="SVGID_16_">
						<use xlink:href="#SVGID_15_"  style="overflow:visible;"/>
					</clipPath>
					<g class="st38">
						<path class="st39" d="M26.2,6.5l0.5-0.5c0,0,0,0,0,0L26.2,6.5C26.2,6.5,26.2,6.5,26.2,6.5"/>
						<path class="st40" d="M26.2,6.5l0.5-0.5c0,0,0.1,0,0.1,0l-0.5,0.5C26.3,6.5,26.3,6.5,26.2,6.5"/>
						<path class="st41" d="M26.4,6.5L26.9,6C26.9,6,27,6,27,6l-0.5,0.5C26.5,6.5,26.4,6.5,26.4,6.5"/>
						<path class="st42" d="M26.5,6.5L27,6c0.1,0,0.1,0,0.2,0.1l-0.5,0.5C26.6,6.5,26.6,6.5,26.5,6.5"/>
						<path class="st43" d="M26.7,6.6L27.2,6c0.1,0,0.1,0.1,0.2,0.1l-0.5,0.5C26.8,6.6,26.7,6.6,26.7,6.6"/>
						<path class="st44" d="M26.9,6.7l0.5-0.5c0.3,0.1,0.4,0.4,0.6,0.7l-0.5,0.5C27.3,7,27.1,6.8,26.9,6.7"/>
						<path class="st43" d="M27.4,7.3l0.5-0.5C28,6.9,28,6.9,28,7l-0.5,0.5C27.5,7.4,27.5,7.4,27.4,7.3"/>
						<path class="st42" d="M27.5,7.5L28,7c0,0.1,0,0.1,0,0.2l-0.5,0.5C27.5,7.6,27.5,7.6,27.5,7.5"/>
					</g>
				</g>
			</g>
			<g>
				<path class="st45" d="M24.5,11.3c0,0,0-0.1,0-0.1l0-4.7h1.7c0.7,0,1.3,0.5,1.3,1.2l0.6,5.4h-3.5c0-0.1,0-0.1,0-0.2
					c0,0,0-0.1,0-0.1c0-0.1,0-0.1,0-0.2c0,0,0-0.1,0-0.1c0-0.1,0-0.1,0-0.2c0-0.1,0-0.2,0-0.2c0,0,0,0,0-0.1c0-0.1,0-0.1,0-0.2
					c0,0,0-0.1,0-0.1C24.5,11.5,24.5,11.4,24.5,11.3C24.5,11.3,24.5,11.3,24.5,11.3z"/>
			</g>
		</g>
		<g class="st5">
			<g class="st5">
				<g>
					<defs>
						<path id="SVGID_17_" d="M33.2,6.9l0.5-0.5c0.2-0.2,0.6-0.4,0.9-0.4l-0.5,0.5C33.7,6.5,33.4,6.6,33.2,6.9z"/>
					</defs>
					<clipPath id="SVGID_18_">
						<use xlink:href="#SVGID_17_"  style="overflow:visible;"/>
					</clipPath>
					<g class="st46">
						<path class="st47" d="M33.2,6.9l0.5-0.5c0.1-0.1,0.3-0.2,0.5-0.3l-0.5,0.5C33.5,6.6,33.3,6.7,33.2,6.9"/>
						<path class="st48" d="M33.6,6.6L34.1,6c0.1,0,0.1,0,0.2-0.1l-0.5,0.5C33.8,6.5,33.7,6.5,33.6,6.6"/>
						<path class="st49" d="M33.8,6.5L34.3,6c0.1,0,0.1,0,0.2,0L34,6.5C33.9,6.5,33.9,6.5,33.8,6.5"/>
						<path class="st39" d="M34,6.5l0.5-0.5c0,0,0.1,0,0.1,0l-0.5,0.5C34.1,6.5,34,6.5,34,6.5"/>
					</g>
				</g>
			</g>
			<g>
				<polygon class="st36" points="34.1,6.5 34.6,5.9 35,5.9 34.5,6.5 				"/>
			</g>
			<g>
				<polygon class="st50" points="34.5,6.5 35,5.9 35,12.5 34.5,13 				"/>
			</g>
			<g>
				<path class="st45" d="M34.5,13h-2l0.3-5.3c0-0.7,0.6-1.3,1.3-1.3h0.3L34.5,13z"/>
			</g>
		</g>
		<g class="st5">
			<g>
				<polygon class="st51" points="24.7,13.6 25.2,13.1 28.7,13.1 28.2,13.6 				"/>
			</g>
			<g>
				<polygon class="st52" points="28.2,13.6 28.7,13.1 29.8,23.1 29.3,23.6 				"/>
			</g>
			<g>
				<path class="st53" d="M29.3,23.6h-3.7l-0.5-4.7c-0.1-0.6-0.1-1.3-0.2-2.2c-0.1-0.9-0.1-1.9-0.2-2.9c0,0,0-0.1,0-0.1h3.5
					L29.3,23.6z"/>
			</g>
		</g>
		<g class="st5">
			<g>
				<polygon class="st51" points="32.4,13.6 32.9,13.1 35,13.1 34.5,13.6 				"/>
			</g>
			<g>
				<polygon class="st54" points="34.5,13.6 35,13.1 35,23.1 34.5,23.6 				"/>
			</g>
			<g>
				<polygon class="st53" points="31.7,23.6 32.4,13.6 34.5,13.6 34.5,23.6 				"/>
			</g>
		</g>
		<g class="st5">
			<g class="st5">
				<g>
					<defs>
						<path id="SVGID_19_" d="M30.1,31.2l0.5-0.5c0,0.2,0.1,0.4,0.1,0.6c0,0.1,0,0.2,0,0.2c0,0,0,0.1,0,0.1c0,0.2,0,0.4,0.1,0.6
							c0,0.1,0,0.3,0,0.5c0,0.2,0,0.4,0.1,0.6c0,0.1,0,0.1,0,0.2s0,0.1,0,0.2l-0.5,0.5c0-0.1,0-0.1,0-0.2c0-0.1,0-0.1,0-0.2
							c0-0.2,0-0.4-0.1-0.6c0-0.2,0-0.3,0-0.5c0-0.2,0-0.4-0.1-0.6c0,0,0-0.1,0-0.1c0-0.1,0-0.2,0-0.2
							C30.2,31.6,30.2,31.4,30.1,31.2z"/>
					</defs>
					<clipPath id="SVGID_20_">
						<use xlink:href="#SVGID_19_"  style="overflow:visible;"/>
					</clipPath>
					<g class="st55">
						<path class="st27" d="M30.1,31.2l0.5-0.5c0,0.2,0.1,0.4,0.1,0.6c0,0.1,0,0.2,0,0.2c0,0,0,0.1,0,0.1c0,0.2,0,0.4,0.1,0.6
							c0,0,0,0,0,0.1l-0.5,0.5c0,0,0,0,0-0.1c0-0.2,0-0.4-0.1-0.6c0,0,0-0.1,0-0.1c0-0.1,0-0.2,0-0.2C30.2,31.6,30.2,31.4,30.1,31.2
							"/>
						<path class="st26" d="M30.3,32.8l0.5-0.5c0,0.1,0,0.3,0,0.4c0,0.2,0,0.4,0.1,0.6l0,0l-0.5,0.5l0,0c0-0.2,0-0.4-0.1-0.6
							C30.4,33.1,30.4,32.9,30.3,32.8"/>
						<path class="st27" d="M30.4,33.8l0.5-0.5c0,0.1,0,0.1,0,0.2s0,0.1,0,0.2l-0.5,0.5c0-0.1,0-0.1,0-0.2
							C30.5,33.9,30.4,33.8,30.4,33.8"/>
					</g>
				</g>
			</g>
			<g>
				<polygon class="st23" points="29.4,24.2 29.9,23.6 30.7,30.7 30.1,31.2 				"/>
			</g>
			<g>
				<polygon class="st20" points="25.7,24.2 26.2,23.6 29.9,23.6 29.4,24.2 				"/>
			</g>
			<g>
				<path class="st22" d="M25.7,24.2h3.7l0.8,7c0,0.2,0.1,0.4,0.1,0.6c0,0.1,0,0.2,0,0.2c0,0,0,0.1,0,0.1c0,0.2,0,0.4,0.1,0.6
					c0,0.1,0,0.3,0,0.5c0,0.2,0,0.4,0.1,0.6c0,0.1,0,0.1,0,0.2s0,0.1,0,0.2h-3.8l-0.5-4.9L25.7,24.2z"/>
			</g>
		</g>
		<g class="st5">
			<g>
				<polygon class="st20" points="31.7,24.2 32.2,23.6 35,23.6 34.5,24.2 				"/>
			</g>
			<g>
				<polygon class="st21" points="34.5,24.2 35,23.6 35.1,33.6 34.6,34.1 				"/>
			</g>
			<g>
				<path class="st22" d="M31.1,33.9c0,0,0-0.1,0-0.1c0-0.2,0-0.4,0-0.6c0-0.2,0-0.3,0-0.5c0-0.2,0-0.4,0-0.6c0,0,0-0.1,0-0.1
					c0-0.1,0-0.2,0-0.2c0-0.2,0-0.4,0-0.6l0.5-7h2.8l0,10h-3.4C31.1,34.1,31.1,34,31.1,33.9z"/>
			</g>
		</g>
		<g class="st5">
			<g>
				<polygon class="st20" points="26.8,34.7 27.3,34.2 31.1,34.2 30.5,34.7 				"/>
			</g>
			<g class="st5">
				<g>
					<defs>
						<path id="SVGID_21_" d="M30.5,34.7l0.5-0.5c0,0.1,0,0.2,0,0.3c0,0.1,0,0.1,0,0.2c0,0.2,0.1,0.4,0.1,0.6
							c0.1,0.9,0.2,1.8,0.3,2.5L31,38.4c-0.1-0.7-0.2-1.6-0.3-2.5c0-0.2-0.1-0.4-0.1-0.6c0-0.1,0-0.1,0-0.2
							C30.6,34.9,30.6,34.8,30.5,34.7z"/>
					</defs>
					<clipPath id="SVGID_22_">
						<use xlink:href="#SVGID_21_"  style="overflow:visible;"/>
					</clipPath>
					<g class="st56">
						<path class="st27" d="M30.5,34.7l0.5-0.5c0,0.1,0,0.2,0,0.3c0,0.1,0,0.1,0,0.2c0,0.2,0.1,0.4,0.1,0.6c0.1,0.7,0.2,1.3,0.2,1.8
							l-0.5,0.5c-0.1-0.6-0.1-1.2-0.2-1.8c0-0.2-0.1-0.4-0.1-0.6c0-0.1,0-0.1,0-0.2C30.6,34.9,30.6,34.8,30.5,34.7"/>
						<path class="st26" d="M30.9,37.7l0.5-0.5c0,0.2,0,0.5,0.1,0.7L31,38.4C31,38.2,30.9,37.9,30.9,37.7"/>
					</g>
				</g>
			</g>
			<g>
				<polygon class="st20" points="31.1,34.7 31.6,34.2 35.1,34.2 34.6,34.7 				"/>
			</g>
			<g>
				<polygon class="st21" points="34.6,34.7 35.1,34.2 35.1,42.9 34.6,43.4 				"/>
			</g>
			<g>
				<path class="st22" d="M34.6,43.4C34.6,43.4,34.5,43.4,34.6,43.4c-0.1,0-0.1,0-0.2,0h-5.5c-0.7,0-1.3-0.5-1.3-1.2l-0.8-7.5h3.8
					c0,0.1,0,0.2,0,0.3c0,0.1,0,0.1,0,0.2c0,0.2,0.1,0.4,0.1,0.6c0.1,0.9,0.2,1.8,0.3,2.5c0-0.7,0.1-1.6,0.1-2.5c0-0.2,0-0.4,0-0.6
					c0-0.1,0-0.1,0-0.2c0-0.1,0-0.3,0-0.4h3.5L34.6,43.4C34.6,43.4,34.6,43.4,34.6,43.4z"/>
			</g>
		</g>
		<g class="st5">
			<g>
				<polygon class="st10" points="39,7.9 39.5,7.4 39,12.5 38.5,13.1 				"/>
			</g>
			<g>
				<polygon class="st51" points="34.9,6.5 35.4,5.9 38.2,5.9 37.6,6.5 				"/>
			</g>
			<g class="st5">
				<g>
					<defs>
						<path id="SVGID_23_" d="M37.6,6.5l0.5-0.5c0.8,0,1.4,0.7,1.3,1.5L39,7.9C39.1,7.2,38.4,6.5,37.6,6.5z"/>
					</defs>
					<clipPath id="SVGID_24_">
						<use xlink:href="#SVGID_23_"  style="overflow:visible;"/>
					</clipPath>
					<g class="st57">
						<path class="st58" d="M37.6,6.5l0.5-0.5c0,0,0,0,0,0L37.6,6.5C37.7,6.5,37.7,6.5,37.6,6.5"/>
						<path class="st59" d="M37.7,6.5l0.5-0.5c0.1,0,0.1,0,0.1,0l-0.5,0.5C37.8,6.5,37.7,6.5,37.7,6.5"/>
						<path class="st60" d="M37.8,6.5L38.4,6c0.1,0,0.1,0,0.1,0L38,6.5C37.9,6.5,37.9,6.5,37.8,6.5"/>
						<path class="st61" d="M38,6.5L38.5,6c0.1,0,0.1,0,0.2,0.1l-0.5,0.5C38.1,6.5,38,6.5,38,6.5"/>
						<path class="st62" d="M38.1,6.6L38.7,6c0.1,0,0.1,0.1,0.2,0.1l-0.5,0.5C38.3,6.6,38.2,6.6,38.1,6.6"/>
						<path class="st63" d="M38.3,6.7l0.5-0.5c0.3,0.1,0.4,0.4,0.6,0.7l-0.5,0.5C38.8,7,38.6,6.8,38.3,6.7"/>
						<path class="st62" d="M38.9,7.3l0.5-0.5c0,0.1,0,0.1,0.1,0.2L39,7.5C38.9,7.4,38.9,7.4,38.9,7.3"/>
						<path class="st61" d="M39,7.5L39.5,7c0,0.1,0,0.1,0,0.2L39,7.7C39,7.6,39,7.6,39,7.5"/>
						<path class="st60" d="M39,7.7l0.5-0.5c0,0,0,0.1,0,0.2L39,7.8C39,7.8,39,7.7,39,7.7"/>
						<path class="st59" d="M39,7.8l0.5-0.5c0,0,0,0.1,0,0.1L39,7.9C39,7.9,39,7.9,39,7.8"/>
					</g>
				</g>
			</g>
			<g>
				<path class="st53" d="M37.6,6.5c0.8,0,1.4,0.7,1.3,1.5L38.5,13h-3.6l0-6.6L37.6,6.5L37.6,6.5z"/>
			</g>
		</g>
		<g class="st5">
			<g>
				<polygon class="st13" points="38.5,13.6 39,13.1 38,23.1 37.5,23.6 				"/>
			</g>
			<g>
				<polygon class="st36" points="34.9,13.6 35.4,13.1 39,13.1 38.5,13.6 				"/>
			</g>
			<g>
				<polygon class="st45" points="38.5,13.6 37.5,23.6 35,23.6 34.9,13.6 				"/>
			</g>
		</g>
		<g class="st5">
			<g>
				<polygon class="st13" points="37.5,24.2 38,23.7 37,33.7 36.5,34.2 				"/>
			</g>
			<g>
				<polygon class="st36" points="35,24.2 35.5,23.7 38,23.7 37.5,24.2 				"/>
			</g>
			<g>
				<polygon class="st45" points="37.5,24.2 36.5,34.2 35,34.2 35,24.2 				"/>
			</g>
		</g>
		<g class="st5">
			<g class="st5">
				<g>
					<defs>
						<path id="SVGID_25_" d="M35.9,42.5L35.4,43c0,0,0,0,0,0l0,0L35.9,42.5L35.9,42.5C35.9,42.5,35.9,42.5,35.9,42.5z"/>
					</defs>
					<clipPath id="SVGID_26_">
						<use xlink:href="#SVGID_25_"  style="overflow:visible;"/>
					</clipPath>
					<g class="st64">
						<path class="st16" d="M35.4,43l0.5-0.5l0,0c0,0,0,0,0,0L35.4,43C35.4,43,35.4,43,35.4,43C35.4,43,35.4,43,35.4,43"/>
					</g>
				</g>
			</g>
			<g class="st5">
				<g>
					<defs>
						<path id="SVGID_27_" d="M35.6,42.7l0.5-0.5c0,0,0,0.1-0.1,0.1l0,0c0,0,0,0.1-0.1,0.1l0,0c0,0,0,0-0.1,0.1L35.4,43
							c0,0,0,0,0.1-0.1l0,0c0,0,0-0.1,0.1-0.1l0,0C35.6,42.8,35.6,42.8,35.6,42.7z"/>
					</defs>
					<clipPath id="SVGID_28_">
						<use xlink:href="#SVGID_27_"  style="overflow:visible;"/>
					</clipPath>
					<g class="st65">
						<path class="st17" d="M35.6,42.7l0.5-0.5c0,0,0,0,0,0.1L35.6,42.7C35.6,42.8,35.6,42.7,35.6,42.7"/>
						<path class="st16" d="M35.6,42.8l0.5-0.5c0,0,0,0,0,0l0,0c0,0,0,0.1-0.1,0.1l0,0c0,0,0,0-0.1,0.1L35.4,43c0,0,0,0,0.1-0.1l0,0
							C35.5,42.9,35.5,42.9,35.6,42.8L35.6,42.8C35.6,42.8,35.6,42.8,35.6,42.8"/>
					</g>
				</g>
			</g>
			<g class="st5">
				<g>
					<defs>
						<path id="SVGID_29_" d="M35.7,42.2l0.5-0.5c0,0,0,0.1,0,0.1c0,0,0,0,0,0c0,0,0,0.1,0,0.1c0,0,0,0.1,0,0.1c0,0,0,0,0,0
							c0,0,0,0.1,0,0.1l-0.5,0.5c0,0,0-0.1,0-0.1c0,0,0,0,0,0c0,0,0-0.1,0-0.1c0,0,0-0.1,0-0.1c0,0,0,0,0,0
							C35.7,42.3,35.7,42.3,35.7,42.2z"/>
					</defs>
					<clipPath id="SVGID_30_">
						<use xlink:href="#SVGID_29_"  style="overflow:visible;"/>
					</clipPath>
					<g class="st66">
						<path class="st25" d="M35.7,42.2l0.5-0.5c0,0,0,0,0,0L35.7,42.2C35.7,42.3,35.7,42.2,35.7,42.2"/>
						<path class="st19" d="M35.7,42.3l0.5-0.5c0,0,0,0.1,0,0.1c0,0,0,0,0,0s0,0,0,0.1l-0.5,0.5c0,0,0,0,0-0.1
							C35.7,42.4,35.7,42.4,35.7,42.3C35.7,42.3,35.7,42.3,35.7,42.3"/>
						<path class="st18" d="M35.7,42.4l0.5-0.5c0,0,0,0,0,0.1c0,0,0,0.1,0,0.1l-0.5,0.5C35.7,42.6,35.7,42.5,35.7,42.4
							C35.7,42.5,35.7,42.4,35.7,42.4"/>
						<path class="st17" d="M35.7,42.6l0.5-0.5l0,0c0,0,0,0,0,0c0,0,0,0.1,0,0.1l-0.5,0.5C35.6,42.7,35.6,42.7,35.7,42.6
							C35.6,42.6,35.6,42.6,35.7,42.6C35.6,42.6,35.6,42.6,35.7,42.6"/>
					</g>
				</g>
			</g>
			<g>
				<polygon class="st7" points="36.4,34.8 37,34.2 36.3,41.7 35.7,42.2 				"/>
			</g>
			<g>
				<polygon class="st20" points="35,34.8 35.5,34.2 37,34.2 36.4,34.8 				"/>
			</g>
			<g>
				<path class="st22" d="M35,34.8h1.4l-0.7,7.5c0,0,0,0.1,0,0.1c0,0,0,0,0,0c0,0,0,0.1,0,0.1c0,0,0,0.1,0,0.1c0,0,0,0,0,0
					c0,0,0,0.1,0,0.1c0,0,0,0.1-0.1,0.1l0,0c0,0,0,0.1-0.1,0.1l0,0c0,0,0,0-0.1,0.1l0,0c0,0,0,0-0.1,0.1l0,0c0,0,0,0-0.1,0.1l0,0
					c0,0-0.1,0-0.1,0.1c0,0,0,0,0,0c0,0,0,0,0,0L35,34.8z"/>
			</g>
		</g>
	</g>
</g>
</svg>
